<?xml version="1.0" encoding="UTF-8" standalone="no"?>
<!-- Created with Inkscape (http://www.inkscape.org/) -->

<svg
   xmlns:dc="http://purl.org/dc/elements/1.1/"
   xmlns:cc="http://creativecommons.org/ns#"
   xmlns:rdf="http://www.w3.org/1999/02/22-rdf-syntax-ns#"
   xmlns:svg="http://www.w3.org/2000/svg"
   xmlns="http://www.w3.org/2000/svg"
   xmlns:xlink="http://www.w3.org/1999/xlink"
   xmlns:sodipodi="http://sodipodi.sourceforge.net/DTD/sodipodi-0.dtd"
   xmlns:inkscape="http://www.inkscape.org/namespaces/inkscape"
   width="500.01965"
   height="500"
   id="svg2"
   version="1.1"
   inkscape:version="0.48.5 r10040"
   sodipodi:docname="schema.svg">
  <defs
     id="defs4">
    <marker
       inkscape:stockid="Arrow2Lstart"
       orient="auto"
       refY="0"
       refX="0"
       id="Arrow2Lstart"
       style="overflow:visible">
      <path
         id="path4300"
         style="fill-rule:evenodd;stroke-width:0.625;stroke-linejoin:round"
         d="M 8.7185878,4.0337352 -2.2072895,0.01601326 8.7185884,-4.0017078 c -1.7454984,2.3720609 -1.7354408,5.6174519 -6e-7,8.035443 z"
         transform="matrix(1.1,0,0,1.1,1.1,0)"
         inkscape:connector-curvature="0" />
    </marker>
    <marker
       inkscape:stockid="Arrow2Lend"
       orient="auto"
       refY="0"
       refX="0"
       id="Arrow2Lend"
       style="overflow:visible">
      <path
         id="path4303"
         style="fill-rule:evenodd;stroke-width:0.625;stroke-linejoin:round"
         d="M 8.7185878,4.0337352 -2.2072895,0.01601326 8.7185884,-4.0017078 c -1.7454984,2.3720609 -1.7354408,5.6174519 -6e-7,8.035443 z"
         transform="matrix(-1.1,0,0,-1.1,-1.1,0)"
         inkscape:connector-curvature="0" />
    </marker>
    <marker
       inkscape:stockid="Arrow1Lstart"
       orient="auto"
       refY="0"
       refX="0"
       id="Arrow1Lstart"
       style="overflow:visible">
      <path
         id="path4282"
         d="M 0,0 5,-5 -12.5,0 5,5 0,0 z"
         style="fill-rule:evenodd;stroke:#000000;stroke-width:1pt"
         transform="matrix(0.8,0,0,0.8,10,0)"
         inkscape:connector-curvature="0" />
    </marker>
    <marker
       inkscape:stockid="Arrow1Lend"
       orient="auto"
       refY="0"
       refX="0"
       id="Arrow1Lend"
       style="overflow:visible">
      <path
         id="path4285"
         d="M 0,0 5,-5 -12.5,0 5,5 0,0 z"
         style="fill-rule:evenodd;stroke:#000000;stroke-width:1pt"
         transform="matrix(-0.8,0,0,-0.8,-10,0)"
         inkscape:connector-curvature="0" />
    </marker>
    <marker
       inkscape:stockid="Arrow2Lend"
       orient="auto"
       refY="0"
       refX="0"
       id="Arrow2Lend-2"
       style="overflow:visible">
      <path
         inkscape:connector-curvature="0"
         id="path4303-7"
         style="fill-rule:evenodd;stroke-width:0.625;stroke-linejoin:round"
         d="M 8.7185878,4.0337352 -2.2072895,0.01601326 8.7185884,-4.0017078 c -1.7454984,2.3720609 -1.7354408,5.6174519 -6e-7,8.035443 z"
         transform="matrix(-1.1,0,0,-1.1,-1.1,0)" />
    </marker>
    <marker
       inkscape:stockid="Arrow2Lend"
       orient="auto"
       refY="0"
       refX="0"
       id="Arrow2Lend-0"
       style="overflow:visible">
      <path
         inkscape:connector-curvature="0"
         id="path4303-3"
         style="fill-rule:evenodd;stroke-width:0.625;stroke-linejoin:round"
         d="M 8.7185878,4.0337352 -2.2072895,0.01601326 8.7185884,-4.0017078 c -1.7454984,2.3720609 -1.7354408,5.6174519 -6e-7,8.035443 z"
         transform="matrix(-1.1,0,0,-1.1,-1.1,0)" />
    </marker>
    <marker
       inkscape:stockid="Arrow2Lend"
       orient="auto"
       refY="0"
       refX="0"
       id="Arrow2Lend-8"
       style="overflow:visible">
      <path
         inkscape:connector-curvature="0"
         id="path4303-2"
         style="fill-rule:evenodd;stroke-width:0.625;stroke-linejoin:round"
         d="M 8.7185878,4.0337352 -2.2072895,0.01601326 8.7185884,-4.0017078 c -1.7454984,2.3720609 -1.7354408,5.6174519 -6e-7,8.035443 z"
         transform="matrix(-1.1,0,0,-1.1,-1.1,0)" />
    </marker>
    <marker
       inkscape:stockid="Arrow2Lend"
       orient="auto"
       refY="0"
       refX="0"
       id="Arrow2Lend-5"
       style="overflow:visible">
      <path
         inkscape:connector-curvature="0"
         id="path4303-38"
         style="fill-rule:evenodd;stroke-width:0.625;stroke-linejoin:round"
         d="M 8.7185878,4.0337352 -2.2072895,0.01601326 8.7185884,-4.0017078 c -1.7454984,2.3720609 -1.7354408,5.6174519 -6e-7,8.035443 z"
         transform="matrix(-1.1,0,0,-1.1,-1.1,0)" />
    </marker>
    <marker
       inkscape:stockid="Arrow2Lend"
       orient="auto"
       refY="0"
       refX="0"
       id="Arrow2Lend-9"
       style="overflow:visible">
      <path
         inkscape:connector-curvature="0"
         id="path4303-1"
         style="fill-rule:evenodd;stroke-width:0.625;stroke-linejoin:round"
         d="M 8.7185878,4.0337352 -2.2072895,0.01601326 8.7185884,-4.0017078 c -1.7454984,2.3720609 -1.7354408,5.6174519 -6e-7,8.035443 z"
         transform="matrix(-1.1,0,0,-1.1,-1.1,0)" />
    </marker>
    <marker
       inkscape:stockid="Arrow2Lend"
       orient="auto"
       refY="0"
       refX="0"
       id="Arrow2Lend-86"
       style="overflow:visible">
      <path
         inkscape:connector-curvature="0"
         id="path4303-4"
         style="fill-rule:evenodd;stroke-width:0.625;stroke-linejoin:round"
         d="M 8.7185878,4.0337352 -2.2072895,0.01601326 8.7185884,-4.0017078 c -1.7454984,2.3720609 -1.7354408,5.6174519 -6e-7,8.035443 z"
         transform="matrix(-1.1,0,0,-1.1,-1.1,0)" />
    </marker>
    <marker
       inkscape:stockid="Arrow2Lend"
       orient="auto"
       refY="0"
       refX="0"
       id="Arrow2Lend-92"
       style="overflow:visible">
      <path
         inkscape:connector-curvature="0"
         id="path4303-6"
         style="fill-rule:evenodd;stroke-width:0.625;stroke-linejoin:round"
         d="M 8.7185878,4.0337352 -2.2072895,0.01601326 8.7185884,-4.0017078 c -1.7454984,2.3720609 -1.7354408,5.6174519 -6e-7,8.035443 z"
         transform="matrix(-1.1,0,0,-1.1,-1.1,0)" />
    </marker>
    <marker
       inkscape:stockid="Arrow2Lstart"
       orient="auto"
       refY="0"
       refX="0"
       id="Arrow2Lstart-8"
       style="overflow:visible">
      <path
         inkscape:connector-curvature="0"
         id="path4300-6"
         style="fill-rule:evenodd;stroke-width:0.625;stroke-linejoin:round"
         d="M 8.7185878,4.0337352 -2.2072895,0.01601326 8.7185884,-4.0017078 c -1.7454984,2.3720609 -1.7354408,5.6174519 -6e-7,8.035443 z"
         transform="matrix(1.1,0,0,1.1,1.1,0)" />
    </marker>
    <marker
       inkscape:stockid="Arrow2Lend"
       orient="auto"
       refY="0"
       refX="0"
       id="Arrow2Lend-6"
       style="overflow:visible">
      <path
         inkscape:connector-curvature="0"
         id="path4303-9"
         style="fill-rule:evenodd;stroke-width:0.625;stroke-linejoin:round"
         d="M 8.7185878,4.0337352 -2.2072895,0.01601326 8.7185884,-4.0017078 c -1.7454984,2.3720609 -1.7354408,5.6174519 -6e-7,8.035443 z"
         transform="matrix(-1.1,0,0,-1.1,-1.1,0)" />
    </marker>
    <marker
       inkscape:stockid="Arrow2Lend"
       orient="auto"
       refY="0"
       refX="0"
       id="Arrow2Lend-87"
       style="overflow:visible">
      <path
         inkscape:connector-curvature="0"
         id="path4303-49"
         style="fill-rule:evenodd;stroke-width:0.625;stroke-linejoin:round"
         d="M 8.7185878,4.0337352 -2.2072895,0.01601326 8.7185884,-4.0017078 c -1.7454984,2.3720609 -1.7354408,5.6174519 -6e-7,8.035443 z"
         transform="matrix(-1.1,0,0,-1.1,-1.1,0)" />
    </marker>
    <marker
       inkscape:stockid="Arrow2Lend"
       orient="auto"
       refY="0"
       refX="0"
       id="Arrow2Lend-4"
       style="overflow:visible">
      <path
         inkscape:connector-curvature="0"
         id="path4303-67"
         style="fill-rule:evenodd;stroke-width:0.625;stroke-linejoin:round"
         d="M 8.7185878,4.0337352 -2.2072895,0.01601326 8.7185884,-4.0017078 c -1.7454984,2.3720609 -1.7354408,5.6174519 -6e-7,8.035443 z"
         transform="matrix(-1.1,0,0,-1.1,-1.1,0)" />
    </marker>
    <marker
       inkscape:stockid="Arrow2Lstart"
       orient="auto"
       refY="0"
       refX="0"
       id="Arrow2Lstart-4"
       style="overflow:visible">
      <path
         inkscape:connector-curvature="0"
         id="path4300-9"
         style="fill-rule:evenodd;stroke-width:0.625;stroke-linejoin:round"
         d="M 8.7185878,4.0337352 -2.2072895,0.01601326 8.7185884,-4.0017078 c -1.7454984,2.3720609 -1.7354408,5.6174519 -6e-7,8.035443 z"
         transform="matrix(1.1,0,0,1.1,1.1,0)" />
    </marker>
    <marker
       inkscape:stockid="Arrow2Lend"
       orient="auto"
       refY="0"
       refX="0"
       id="Arrow2Lend-1"
       style="overflow:visible">
      <path
         inkscape:connector-curvature="0"
         id="path4303-0"
         style="fill-rule:evenodd;stroke-width:0.625;stroke-linejoin:round"
         d="M 8.7185878,4.0337352 -2.2072895,0.01601326 8.7185884,-4.0017078 c -1.7454984,2.3720609 -1.7354408,5.6174519 -6e-7,8.035443 z"
         transform="matrix(-1.1,0,0,-1.1,-1.1,0)" />
    </marker>
    <marker
       inkscape:stockid="Arrow2Lstart"
       orient="auto"
       refY="0"
       refX="0"
       id="Arrow2Lstart-7"
       style="overflow:visible">
      <path
         inkscape:connector-curvature="0"
         id="path4300-7"
         style="fill-rule:evenodd;stroke-width:0.625;stroke-linejoin:round"
         d="M 8.7185878,4.0337352 -2.2072895,0.01601326 8.7185884,-4.0017078 c -1.7454984,2.3720609 -1.7354408,5.6174519 -6e-7,8.035443 z"
         transform="matrix(1.1,0,0,1.1,1.1,0)" />
    </marker>
    <marker
       inkscape:stockid="Arrow2Lend"
       orient="auto"
       refY="0"
       refX="0"
       id="Arrow2Lend-43"
       style="overflow:visible">
      <path
         inkscape:connector-curvature="0"
         id="path4303-75"
         style="fill-rule:evenodd;stroke-width:0.625;stroke-linejoin:round"
         d="M 8.7185878,4.0337352 -2.2072895,0.01601326 8.7185884,-4.0017078 c -1.7454984,2.3720609 -1.7354408,5.6174519 -6e-7,8.035443 z"
         transform="matrix(-1.1,0,0,-1.1,-1.1,0)" />
    </marker>
    <marker
       inkscape:stockid="Arrow2Lstart"
       orient="auto"
       refY="0"
       refX="0"
       id="Arrow2Lstart-85"
       style="overflow:visible">
      <path
         inkscape:connector-curvature="0"
         id="path4300-4"
         style="fill-rule:evenodd;stroke-width:0.625;stroke-linejoin:round"
         d="M 8.7185878,4.0337352 -2.2072895,0.01601326 8.7185884,-4.0017078 c -1.7454984,2.3720609 -1.7354408,5.6174519 -6e-7,8.035443 z"
         transform="matrix(1.1,0,0,1.1,1.1,0)" />
    </marker>
    <marker
       inkscape:stockid="Arrow2Lend"
       orient="auto"
       refY="0"
       refX="0"
       id="Arrow2Lend-50"
       style="overflow:visible">
      <path
         inkscape:connector-curvature="0"
         id="path4303-61"
         style="fill-rule:evenodd;stroke-width:0.625;stroke-linejoin:round"
         d="M 8.7185878,4.0337352 -2.2072895,0.01601326 8.7185884,-4.0017078 c -1.7454984,2.3720609 -1.7354408,5.6174519 -6e-7,8.035443 z"
         transform="matrix(-1.1,0,0,-1.1,-1.1,0)" />
    </marker>
    <marker
       inkscape:stockid="Arrow2Lend"
       orient="auto"
       refY="0"
       refX="0"
       id="Arrow2Lend-57"
       style="overflow:visible">
      <path
         inkscape:connector-curvature="0"
         id="path4303-31"
         style="fill-rule:evenodd;stroke-width:0.625;stroke-linejoin:round"
         d="M 8.7185878,4.0337352 -2.2072895,0.01601326 8.7185884,-4.0017078 c -1.7454984,2.3720609 -1.7354408,5.6174519 -6e-7,8.035443 z"
         transform="matrix(-1.1,0,0,-1.1,-1.1,0)" />
    </marker>
    <marker
       inkscape:stockid="Arrow2Lend"
       orient="auto"
       refY="0"
       refX="0"
       id="Arrow2Lend-3"
       style="overflow:visible">
      <path
         inkscape:connector-curvature="0"
         id="path4303-99"
         style="fill-rule:evenodd;stroke-width:0.625;stroke-linejoin:round"
         d="M 8.7185878,4.0337352 -2.2072895,0.01601326 8.7185884,-4.0017078 c -1.7454984,2.3720609 -1.7354408,5.6174519 -6e-7,8.035443 z"
         transform="matrix(-1.1,0,0,-1.1,-1.1,0)" />
    </marker>
    <marker
       inkscape:stockid="Arrow2Lend"
       orient="auto"
       refY="0"
       refX="0"
       id="Arrow2Lend-42"
       style="overflow:visible">
      <path
         id="path4303-37"
         style="fill-rule:evenodd;stroke-width:0.625;stroke-linejoin:round"
         d="M 8.7185878,4.0337352 -2.2072895,0.01601326 8.7185884,-4.0017078 c -1.7454984,2.3720609 -1.7354408,5.6174519 -6e-7,8.035443 z"
         transform="matrix(-1.1,0,0,-1.1,-1.1,0)"
         inkscape:connector-curvature="0" />
    </marker>
    <marker
       inkscape:stockid="Arrow2Lend"
       orient="auto"
       refY="0"
       refX="0"
       id="Arrow2Lend-66"
       style="overflow:visible">
      <path
         id="path4303-12"
         style="fill-rule:evenodd;stroke-width:0.625;stroke-linejoin:round"
         d="M 8.7185878,4.0337352 -2.2072895,0.01601326 8.7185884,-4.0017078 c -1.7454984,2.3720609 -1.7354408,5.6174519 -6e-7,8.035443 z"
         transform="matrix(-1.1,0,0,-1.1,-1.1,0)"
         inkscape:connector-curvature="0" />
    </marker>
    <marker
       inkscape:stockid="Arrow2Lend"
       orient="auto"
       refY="0"
       refX="0"
       id="Arrow2Lend-04"
       style="overflow:visible">
      <path
         id="path4303-76"
         style="fill-rule:evenodd;stroke-width:0.625;stroke-linejoin:round"
         d="M 8.7185878,4.0337352 -2.2072895,0.01601326 8.7185884,-4.0017078 c -1.7454984,2.3720609 -1.7354408,5.6174519 -6e-7,8.035443 z"
         transform="matrix(-1.1,0,0,-1.1,-1.1,0)"
         inkscape:connector-curvature="0" />
    </marker>
    <marker
       inkscape:stockid="Arrow2Lend"
       orient="auto"
       refY="0"
       refX="0"
       id="Arrow2Lend-01"
       style="overflow:visible">
      <path
         id="path4303-35"
         style="fill-rule:evenodd;stroke-width:0.625;stroke-linejoin:round"
         d="M 8.7185878,4.0337352 -2.2072895,0.01601326 8.7185884,-4.0017078 c -1.7454984,2.3720609 -1.7354408,5.6174519 -6e-7,8.035443 z"
         transform="matrix(-1.1,0,0,-1.1,-1.1,0)"
         inkscape:connector-curvature="0" />
    </marker>
    <marker
       inkscape:stockid="Arrow2Lend"
       orient="auto"
       refY="0"
       refX="0"
       id="Arrow2Lend-82"
       style="overflow:visible">
      <path
         id="path4303-8"
         style="fill-rule:evenodd;stroke-width:0.625;stroke-linejoin:round"
         d="M 8.7185878,4.0337352 -2.2072895,0.01601326 8.7185884,-4.0017078 c -1.7454984,2.3720609 -1.7354408,5.6174519 -6e-7,8.035443 z"
         transform="matrix(-1.1,0,0,-1.1,-1.1,0)"
         inkscape:connector-curvature="0" />
    </marker>
    <marker
       inkscape:stockid="Arrow2Lend"
       orient="auto"
       refY="0"
       refX="0"
       id="Arrow2Lend-20"
       style="overflow:visible">
      <path
         id="path4303-63"
         style="fill-rule:evenodd;stroke-width:0.625;stroke-linejoin:round"
         d="M 8.7185878,4.0337352 -2.2072895,0.01601326 8.7185884,-4.0017078 c -1.7454984,2.3720609 -1.7354408,5.6174519 -6e-7,8.035443 z"
         transform="matrix(-1.1,0,0,-1.1,-1.1,0)"
         inkscape:connector-curvature="0" />
    </marker>
    <marker
       inkscape:stockid="Arrow2Lend"
       orient="auto"
       refY="0"
       refX="0"
       id="Arrow2Lend-34"
       style="overflow:visible">
      <path
         id="path4303-750"
         style="fill-rule:evenodd;stroke-width:0.625;stroke-linejoin:round"
         d="M 8.7185878,4.0337352 -2.2072895,0.01601326 8.7185884,-4.0017078 c -1.7454984,2.3720609 -1.7354408,5.6174519 -6e-7,8.035443 z"
         transform="matrix(-1.1,0,0,-1.1,-1.1,0)"
         inkscape:connector-curvature="0" />
    </marker>
    <marker
       inkscape:stockid="Arrow2Lend"
       orient="auto"
       refY="0"
       refX="0"
       id="Arrow2Lend-49"
       style="overflow:visible">
      <path
         id="path4303-79"
         style="fill-rule:evenodd;stroke-width:0.625;stroke-linejoin:round"
         d="M 8.7185878,4.0337352 -2.2072895,0.01601326 8.7185884,-4.0017078 c -1.7454984,2.3720609 -1.7354408,5.6174519 -6e-7,8.035443 z"
         transform="matrix(-1.1,0,0,-1.1,-1.1,0)"
         inkscape:connector-curvature="0" />
    </marker>
    <marker
       inkscape:stockid="Arrow2Lend"
       orient="auto"
       refY="0"
       refX="0"
       id="Arrow2Lend-207"
       style="overflow:visible">
      <path
         id="path4303-06"
         style="fill-rule:evenodd;stroke-width:0.625;stroke-linejoin:round"
         d="M 8.7185878,4.0337352 -2.2072895,0.01601326 8.7185884,-4.0017078 c -1.7454984,2.3720609 -1.7354408,5.6174519 -6e-7,8.035443 z"
         transform="matrix(-1.1,0,0,-1.1,-1.1,0)"
         inkscape:connector-curvature="0" />
    </marker>
    <marker
       inkscape:stockid="Arrow2Lend"
       orient="auto"
       refY="0"
       refX="0"
       id="Arrow2Lend-51"
       style="overflow:visible">
      <path
         id="path4303-14"
         style="fill-rule:evenodd;stroke-width:0.625;stroke-linejoin:round"
         d="M 8.7185878,4.0337352 -2.2072895,0.01601326 8.7185884,-4.0017078 c -1.7454984,2.3720609 -1.7354408,5.6174519 -6e-7,8.035443 z"
         transform="matrix(-1.1,0,0,-1.1,-1.1,0)"
         inkscape:connector-curvature="0" />
    </marker>
    <marker
       inkscape:stockid="Arrow2Lend"
       orient="auto"
       refY="0"
       refX="0"
       id="Arrow2Lend-61"
       style="overflow:visible">
      <path
         id="path4303-5"
         style="fill-rule:evenodd;stroke-width:0.625;stroke-linejoin:round"
         d="M 8.7185878,4.0337352 -2.2072895,0.01601326 8.7185884,-4.0017078 c -1.7454984,2.3720609 -1.7354408,5.6174519 -6e-7,8.035443 z"
         transform="matrix(-1.1,0,0,-1.1,-1.1,0)"
         inkscape:connector-curvature="0" />
    </marker>
    <marker
       inkscape:stockid="Arrow2Lend"
       orient="auto"
       refY="0"
       refX="0"
       id="Arrow2Lend-341"
       style="overflow:visible">
      <path
         id="path4303-145"
         style="fill-rule:evenodd;stroke-width:0.625;stroke-linejoin:round"
         d="M 8.7185878,4.0337352 -2.2072895,0.01601326 8.7185884,-4.0017078 c -1.7454984,2.3720609 -1.7354408,5.6174519 -6e-7,8.035443 z"
         transform="matrix(-1.1,0,0,-1.1,-1.1,0)"
         inkscape:connector-curvature="0" />
    </marker>
    <marker
       inkscape:stockid="Arrow2Lend"
       orient="auto"
       refY="0"
       refX="0"
       id="Arrow2Lend-05"
       style="overflow:visible">
      <path
         id="path4303-84"
         style="fill-rule:evenodd;stroke-width:0.625;stroke-linejoin:round"
         d="M 8.7185878,4.0337352 -2.2072895,0.01601326 8.7185884,-4.0017078 c -1.7454984,2.3720609 -1.7354408,5.6174519 -6e-7,8.035443 z"
         transform="matrix(-1.1,0,0,-1.1,-1.1,0)"
         inkscape:connector-curvature="0" />
    </marker>
    <marker
       inkscape:stockid="Arrow2Lend"
       orient="auto"
       refY="0"
       refX="0"
       id="Arrow2Lend-28"
       style="overflow:visible">
      <path
         id="path4303-83"
         style="fill-rule:evenodd;stroke-width:0.625;stroke-linejoin:round"
         d="M 8.7185878,4.0337352 -2.2072895,0.01601326 8.7185884,-4.0017078 c -1.7454984,2.3720609 -1.7354408,5.6174519 -6e-7,8.035443 z"
         transform="matrix(-1.1,0,0,-1.1,-1.1,0)"
         inkscape:connector-curvature="0" />
    </marker>
    <linearGradient
       gradientTransform="scale(1.2219423,0.81836924)"
       id="gradientFill-1-36"
       x1="0.7414425"
       x2="590.86261"
       y1="3.6658268"
       y2="593.78699"
       gradientUnits="userSpaceOnUse"
       spreadMethod="pad">
      <stop
         offset="0"
         stop-color="rgb(203,206,208)"
         stop-opacity="1"
         id="stop7207" />
      <stop
         offset="1"
         stop-color="rgb(132,131,139)"
         stop-opacity="1"
         id="stop7209" />
    </linearGradient>
    <linearGradient
       gradientTransform="scale(0.9899476,1.0101545)"
       id="gradientFill-2-7"
       x1="301.02603"
       x2="703.0675"
       y1="151.4006"
       y2="553.44208"
       gradientUnits="userSpaceOnUse"
       spreadMethod="pad">
      <stop
         offset="0"
         stop-color="rgb(39,109,195)"
         stop-opacity="1"
         id="stop7212" />
      <stop
         offset="1"
         stop-color="rgb(22,92,170)"
         stop-opacity="1"
         id="stop7214" />
    </linearGradient>
    <linearGradient
       inkscape:collect="always"
       xlink:href="#gradientFill-1-36"
       id="linearGradient5872"
       gradientUnits="userSpaceOnUse"
       gradientTransform="matrix(0.06640639,0,0,0.04793207,536.12058,923.4708)"
       spreadMethod="pad"
       x1="0.7414425"
       y1="3.6658268"
       x2="590.86261"
       y2="593.78699" />
    <linearGradient
       inkscape:collect="always"
       xlink:href="#gradientFill-2-7"
       id="linearGradient5874"
       gradientUnits="userSpaceOnUse"
       gradientTransform="matrix(0.05379865,0,0,0.05916498,536.12058,923.4708)"
       spreadMethod="pad"
       x1="301.02603"
       y1="151.4006"
       x2="703.0675"
       y2="553.44208" />
  </defs>
  <sodipodi:namedview
     id="base"
     pagecolor="#ffffff"
     bordercolor="#666666"
     borderopacity="1.0"
     inkscape:pageopacity="0.0"
     inkscape:pageshadow="2"
     inkscape:zoom="1"
     inkscape:cx="173.73536"
     inkscape:cy="251.87334"
     inkscape:document-units="px"
     inkscape:current-layer="g3837-6-8"
     showgrid="false"
     inkscape:window-width="1440"
     inkscape:window-height="856"
     inkscape:window-x="136"
     inkscape:window-y="11"
     inkscape:window-maximized="0"
     fit-margin-top="0"
     fit-margin-left="0"
     fit-margin-right="0"
     fit-margin-bottom="0" />
  <metadata
     id="metadata7">
    <rdf:RDF>
      <cc:Work
         rdf:about="">
        <dc:format>image/svg+xml</dc:format>
        <dc:type
           rdf:resource="http://purl.org/dc/dcmitype/StillImage" />
        <dc:title />
      </cc:Work>
    </rdf:RDF>
  </metadata>
  <g
     inkscape:label="Layer 1"
     inkscape:groupmode="layer"
     id="layer1"
     transform="translate(-63.650959,-568.40525)">
    <g
       transform="translate(-16.255291,103.97825)"
       id="g3837-6-8">
      <path
         style="fill:none;stroke:#000000;stroke-width:1.49999988;stroke-linecap:butt;stroke-linejoin:miter;stroke-miterlimit:4;stroke-opacity:1;stroke-dasharray:none;marker-start:none;marker-end:url(#Arrow2Lend)"
         d="m 105.12833,515.64035 1.50296,196.79489"
         id="path5280-9-79"
         inkscape:connector-type="polyline"
         inkscape:connector-curvature="0"
         sodipodi:nodetypes="cc" />
      <g
         transform="translate(-54.828186,-155.88935)"
         id="g5676-5-7">
        <rect
           style="fill:#dddddd;fill-opacity:1;stroke:#000000;stroke-width:1;stroke-miterlimit:4;stroke-opacity:1;stroke-dasharray:none"
           id="rect2985-4-1-7-7-3-0-5-1"
           width="199"
           height="49"
           x="135.23444"
           y="-669.81635"
           transform="scale(1,-1)" />
        <text
           xml:space="preserve"
           style="font-size:40px;font-style:normal;font-weight:normal;line-height:125%;letter-spacing:0px;word-spacing:0px;fill:#000000;fill-opacity:1;stroke:none;font-family:Sans"
           x="165.66217"
           y="651.57996"
           id="text6923"
           sodipodi:linespacing="125%"><tspan
             sodipodi:role="line"
             x="165.66217"
             y="651.57996"
             id="tspan6925"
             style="font-family:Verdana;-inkscape-font-specification:Verdana"><tspan
               x="165.66217"
               y="651.57996"
               style="font-size:20px;font-variant:normal;font-stretch:normal;font-family:Verdana;-inkscape-font-specification:Verdana"
               id="tspan6927">BALTRAD FTP</tspan></tspan></text>
      </g>
      <g
         transform="translate(282.85156,719.69476)"
         style="font-size:20px;font-style:normal;font-variant:normal;font-weight:normal;font-stretch:normal;text-align:start;line-height:125%;letter-spacing:0px;word-spacing:0px;writing-mode:lr-tb;text-anchor:start;fill:#000000;fill-opacity:1;stroke:none;font-family:Sans;-inkscape-font-specification:Sans"
         id="flowRoot5042">
        <path
           d="m -153.3457,-42.319004 -1.83594,0 0,-1.142578 c -0.52735,0.45573 -1.07748,0.810547 -1.65039,1.064453 -0.57292,0.253906 -1.19467,0.380859 -1.86524,0.38086 -1.30208,-10e-7 -2.33724,-0.501302 -3.10546,-1.503906 -0.76172,-1.002602 -1.14258,-2.392575 -1.14258,-4.169922 0,-0.924473 0.1302,-1.74804 0.39062,-2.470703 0.26693,-0.722648 0.625,-1.337882 1.07422,-1.845704 0.44271,-0.494781 0.95703,-0.872385 1.54297,-1.132812 0.59244,-0.260406 1.20442,-0.390614 1.83594,-0.390625 0.57291,1.1e-5 1.08072,0.06186 1.52344,0.185547 0.4427,0.117198 0.90819,0.302745 1.39648,0.55664 l 0,-4.726562 1.83594,0 0,15.195312 m -1.83594,-2.685546 0,-6.259766 c -0.4948,-0.221345 -0.93751,-0.37434 -1.32813,-0.458984 -0.39063,-0.08463 -0.81706,-0.126944 -1.27929,-0.126954 -1.02865,10e-6 -1.82943,0.358082 -2.40235,1.074219 -0.57292,0.716154 -0.85937,1.731778 -0.85937,3.046875 0,1.295577 0.22135,2.281904 0.66406,2.958985 0.44271,0.670574 1.15234,1.00586 2.12891,1.005859 0.52082,10e-7 1.04817,-0.113931 1.58203,-0.341797 0.53385,-0.234373 1.03189,-0.533852 1.49414,-0.898437"
           style="line-height:125%;font-family:Verdana;-inkscape-font-specification:Verdana"
           id="path6017" />
        <path
           d="m -141.25586,-42.319004 -1.82617,0 0,-1.162109 c -0.16277,0.110678 -0.38412,0.266928 -0.66406,0.46875 -0.27345,0.195313 -0.54038,0.351563 -0.80078,0.46875 -0.306,0.14974 -0.65756,0.273437 -1.05469,0.371094 -0.39714,0.104166 -0.86264,0.156249 -1.39649,0.15625 -0.98307,-10e-7 -1.81641,-0.325521 -2.5,-0.976563 -0.68359,-0.65104 -1.02539,-1.481117 -1.02539,-2.490234 0,-0.826819 0.17578,-1.494136 0.52735,-2.001953 0.35807,-0.514317 0.86588,-0.917963 1.52343,-1.210938 0.66406,-0.292962 1.46159,-0.491529 2.39258,-0.595703 0.93099,-0.104159 1.93033,-0.182284 2.99805,-0.234375 l 0,-0.283203 c -1e-5,-0.416659 -0.0749,-0.76171 -0.22461,-1.035156 -0.14324,-0.273429 -0.35157,-0.488272 -0.625,-0.644531 -0.26042,-0.149731 -0.57292,-0.250642 -0.9375,-0.302735 -0.36459,-0.05207 -0.74545,-0.07811 -1.14258,-0.07813 -0.48177,1e-5 -1.01888,0.06511 -1.61133,0.195313 -0.59245,0.123707 -1.20443,0.305998 -1.83593,0.546875 l -0.0977,0 0,-1.865235 c 0.35807,-0.09764 0.87565,-0.205067 1.55273,-0.322265 0.67708,-0.117177 1.3444,-0.17577 2.00196,-0.175782 0.76822,1.2e-5 1.43554,0.06512 2.00195,0.195313 0.57291,0.123709 1.0677,0.338552 1.48438,0.644531 0.41014,0.299489 0.72264,0.686859 0.9375,1.16211 0.21483,0.475269 0.32225,1.064461 0.32226,1.767578 l 0,7.402343 m -1.82617,-2.685546 0,-3.03711 c -0.5599,0.03256 -1.22071,0.08139 -1.98242,0.146485 -0.75522,0.06511 -1.35417,0.15951 -1.79688,0.283203 -0.52735,0.149744 -0.95378,0.384119 -1.27929,0.703125 -0.32553,0.312504 -0.48829,0.745446 -0.48829,1.298828 0,0.625002 0.1888,1.097007 0.56641,1.416015 0.3776,0.312502 0.95377,0.468752 1.72852,0.46875 0.64452,2e-6 1.23371,-0.123696 1.76757,-0.371093 0.53385,-0.253905 1.02864,-0.556639 1.48438,-0.908203"
           style="line-height:125%;font-family:Verdana;-inkscape-font-specification:Verdana"
           id="path6019" />
        <path
           d="m -135.72852,-55.053379 -2.07031,0 0,-1.904296 2.07031,0 0,1.904296 m -0.11718,12.734375 -1.83594,0 0,-10.908203 1.83594,0 0,10.908203"
           style="line-height:125%;font-family:Verdana;-inkscape-font-specification:Verdana"
           id="path6021" />
        <path
           d="m -130.41602,-42.319004 -1.83593,0 0,-15.195312 1.83593,0 0,15.195312"
           style="line-height:125%;font-family:Verdana;-inkscape-font-specification:Verdana"
           id="path6023" />
        <path
           d="m -117.4082,-53.227207 -6.36719,14.931641 -1.96289,0 2.03125,-4.550781 -4.3457,-10.38086 1.99218,0 3.34961,8.085938 3.37891,-8.085938 1.92383,0"
           style="line-height:125%;font-family:Verdana;-inkscape-font-specification:Verdana"
           id="path6025" />
        <path
           d="m -102.10547,-55.736972 -0.0977,0 c -0.20183,-0.05858 -0.4655,-0.117174 -0.79101,-0.175782 -0.32553,-0.06509 -0.61199,-0.09764 -0.85938,-0.09766 -0.78776,1.4e-5 -1.36068,0.175795 -1.71875,0.527344 -0.35156,0.345065 -0.52734,0.973319 -0.52734,1.884766 l 0,0.371093 3.31055,0 0,1.542969 -3.25196,0 0,9.365234 -1.83593,0 0,-9.365234 -1.24024,0 0,-1.542969 1.24024,0 0,-0.361328 c -1e-5,-1.29556 0.32226,-2.288398 0.96679,-2.978515 0.64453,-0.6966 1.57552,-1.044907 2.79297,-1.044922 0.41015,1.5e-5 0.77799,0.01955 1.10352,0.05859 0.33202,0.03908 0.63476,0.08465 0.9082,0.136719 l 0,1.679688"
           style="line-height:125%;font-family:Verdana;-inkscape-font-specification:Verdana"
           id="path6027" />
        <path
           d="m -98.970703,-55.053379 -2.070317,0 0,-1.904296 2.070317,0 0,1.904296 m -0.117188,12.734375 -1.835939,0 0,-10.908203 1.835939,0 0,10.908203"
           style="line-height:125%;font-family:Verdana;-inkscape-font-specification:Verdana"
           id="path6029" />
        <path
           d="m -93.658203,-42.319004 -1.835938,0 0,-15.195312 1.835938,0 0,15.195312"
           style="line-height:125%;font-family:Verdana;-inkscape-font-specification:Verdana"
           id="path6031" />
        <path
           d="m -80.953125,-47.582675 -8.037109,0 c -3e-6,0.670577 0.100908,1.256514 0.302734,1.757812 0.20182,0.494795 0.478512,0.901695 0.830078,1.220703 0.338537,0.312502 0.738928,0.546877 1.201172,0.703125 0.468744,0.156252 0.983067,0.234376 1.542969,0.234375 0.74218,10e-7 1.487622,-0.146483 2.236328,-0.439453 0.755198,-0.299477 1.292307,-0.592446 1.611328,-0.878906 l 0.09766,0 0,2.001953 c -0.618499,0.260417 -1.250009,0.478516 -1.894531,0.654297 -0.644539,0.175781 -1.321622,0.263671 -2.03125,0.263672 -1.809901,-10e-7 -3.22266,-0.488281 -4.238281,-1.464844 -1.015627,-0.983071 -1.523439,-2.376299 -1.523438,-4.179688 -10e-7,-1.783847 0.485025,-3.199861 1.455078,-4.248046 0.976559,-1.048167 2.25911,-1.572255 3.847657,-1.572266 1.471346,1.1e-5 2.604157,0.429698 3.398437,1.289062 0.800771,0.859384 1.201161,2.080086 1.201172,3.66211 l 0,0.996094 m -1.787109,-1.40625 c -0.0065,-0.963535 -0.25066,-1.708976 -0.732422,-2.236329 -0.475269,-0.527334 -1.201179,-0.791006 -2.177735,-0.791015 -0.983078,9e-6 -1.767582,0.289723 -2.353515,0.86914 -0.579431,0.579436 -0.908206,1.298836 -0.986328,2.158204 l 6.25,0"
           style="line-height:125%;font-family:Verdana;-inkscape-font-specification:Verdana"
           id="path6033" />
        <path
           d="m -65.474609,-42.41666 c -0.34506,0.09115 -0.722663,0.166016 -1.132813,0.22461 -0.403652,0.05859 -0.764979,0.08789 -1.083984,0.08789 -1.113286,0 -1.959639,-0.299479 -2.539063,-0.898437 -0.579429,-0.598957 -0.869142,-1.559243 -0.86914,-2.88086 l 0,-5.800781 -1.240235,0 0,-1.542969 1.240235,0 0,-3.134765 1.835937,0 0,3.134765 3.789063,0 0,1.542969 -3.789063,0 0,4.970703 c -4e-6,0.572921 0.01302,1.022139 0.03906,1.347656 0.02604,0.319014 0.117183,0.618492 0.273437,0.898438 0.143225,0.260418 0.338537,0.452476 0.585938,0.576172 0.253901,0.117189 0.638015,0.175782 1.152343,0.175781 0.299474,10e-7 0.611973,-0.04232 0.9375,-0.126953 0.325514,-0.09114 0.559889,-0.166014 0.703125,-0.224609 l 0.09766,0 0,1.65039"
           style="line-height:125%;font-family:Verdana;-inkscape-font-specification:Verdana"
           id="path6035" />
        <path
           d="m -56.441406,-51.225254 -0.09766,0 c -0.273446,-0.06509 -0.540373,-0.110668 -0.800782,-0.136718 -0.253913,-0.03254 -0.556648,-0.04882 -0.908203,-0.04883 -0.566412,9e-6 -1.113287,0.126962 -1.640625,0.380859 -0.527348,0.247404 -1.03516,0.569669 -1.523437,0.966797 l 0,7.74414 -1.835938,0 0,-10.908203 1.835938,0 0,1.611328 c 0.729162,-0.585927 1.370437,-0.999338 1.923828,-1.240234 0.559889,-0.247385 1.12955,-0.371083 1.708984,-0.371094 0.319003,1.1e-5 0.550123,0.0098 0.69336,0.0293 0.143221,0.01303 0.358064,0.04233 0.644531,0.08789 l 0,1.884765"
           style="line-height:125%;font-family:Verdana;-inkscape-font-specification:Verdana"
           id="path6037" />
        <path
           d="m -46.216797,-42.319004 -1.826172,0 0,-1.162109 c -0.162768,0.110678 -0.384122,0.266928 -0.664062,0.46875 -0.273445,0.195313 -0.540372,0.351563 -0.800781,0.46875 -0.305997,0.14974 -0.657559,0.273437 -1.054688,0.371094 -0.397141,0.104166 -0.862635,0.156249 -1.396484,0.15625 -0.983077,-10e-7 -1.816409,-0.325521 -2.5,-0.976563 -0.683595,-0.65104 -1.025392,-1.481117 -1.025391,-2.490234 -10e-7,-0.826819 0.17578,-1.494136 0.527344,-2.001953 0.358071,-0.514317 0.865883,-0.917963 1.523437,-1.210938 0.664059,-0.292962 1.461584,-0.491529 2.392578,-0.595703 0.930984,-0.104159 1.930332,-0.182284 2.998047,-0.234375 l 0,-0.283203 c -8e-6,-0.416659 -0.07488,-0.76171 -0.224609,-1.035156 -0.143237,-0.273429 -0.351571,-0.488272 -0.625,-0.644531 -0.260424,-0.149731 -0.572924,-0.250642 -0.9375,-0.302735 -0.36459,-0.05207 -0.745449,-0.07811 -1.142578,-0.07813 -0.481776,1e-5 -1.018885,0.06511 -1.611328,0.195313 -0.592452,0.123707 -1.20443,0.305998 -1.835938,0.546875 l -0.09766,0 0,-1.865235 c 0.35807,-0.09764 0.875648,-0.205067 1.552734,-0.322265 0.677079,-0.117177 1.344396,-0.17577 2.001953,-0.175782 0.768223,1.2e-5 1.43554,0.06512 2.001954,0.195313 0.572908,0.123709 1.067699,0.338552 1.484375,0.644531 0.410146,0.299489 0.722646,0.686859 0.9375,1.16211 0.214833,0.475269 0.322255,1.064461 0.322265,1.767578 l 0,7.402343 m -1.826172,-2.685546 0,-3.03711 c -0.559903,0.03256 -1.22071,0.08139 -1.982422,0.146485 -0.755214,0.06511 -1.354171,0.15951 -1.796875,0.283203 -0.527348,0.149744 -0.953779,0.384119 -1.279296,0.703125 -0.325524,0.312504 -0.488285,0.745446 -0.488282,1.298828 -3e-6,0.625002 0.188799,1.097007 0.566407,1.416015 0.3776,0.312502 0.953771,0.468752 1.728515,0.46875 0.644526,2e-6 1.233718,-0.123696 1.767578,-0.371093 0.533847,-0.253905 1.028638,-0.556639 1.484375,-0.908203"
           style="line-height:125%;font-family:Verdana;-inkscape-font-specification:Verdana"
           id="path6039" />
        <path
           d="m -33.541016,-42.319004 -1.835937,0 0,-6.210937 c -9e-6,-0.501295 -0.02931,-0.970045 -0.08789,-1.40625 -0.0586,-0.4427 -0.166024,-0.787752 -0.322265,-1.035156 -0.162769,-0.273429 -0.397144,-0.475252 -0.703125,-0.605469 -0.305998,-0.136709 -0.703133,-0.205069 -1.191407,-0.205078 -0.501308,9e-6 -1.025396,0.123707 -1.572265,0.371094 -0.54688,0.247404 -1.070968,0.563159 -1.572266,0.947265 l 0,8.144531 -1.835937,0 0,-10.908203 1.835937,0 0,1.210938 c 0.572913,-0.47525 1.16536,-0.846344 1.777344,-1.113281 0.611973,-0.266916 1.240228,-0.40038 1.884766,-0.400391 1.178376,1.1e-5 2.076813,0.354828 2.695312,1.064453 0.618479,0.709645 0.927723,1.731779 0.927734,3.066406 l 0,7.080078"
           style="line-height:125%;font-family:Verdana;-inkscape-font-specification:Verdana"
           id="path6041" />
        <path
           d="m -22.212891,-45.463535 c -9e-6,0.996096 -0.41342,1.813153 -1.240234,2.451172 -0.82032,0.638021 -1.943366,0.957031 -3.369141,0.957031 -0.807295,0 -1.549482,-0.0944 -2.226562,-0.283203 -0.670575,-0.195312 -1.233726,-0.4069 -1.689453,-0.634765 l 0,-2.060547 0.09766,0 c 0.579425,0.4362 1.223956,0.784507 1.933594,1.044922 0.709631,0.253907 1.389969,0.38086 2.041015,0.380859 0.807286,10e-7 1.438796,-0.130207 1.894532,-0.390625 0.455721,-0.260415 0.683586,-0.670571 0.683593,-1.230469 -7e-6,-0.429684 -0.123705,-0.755205 -0.371093,-0.976562 -0.247403,-0.22135 -0.722663,-0.410152 -1.425782,-0.566407 -0.260422,-0.05859 -0.602218,-0.126948 -1.02539,-0.205078 -0.416671,-0.07812 -0.79753,-0.162755 -1.142578,-0.253906 -0.957034,-0.253901 -1.637372,-0.624994 -2.041016,-1.113281 -0.397137,-0.494785 -0.595704,-1.100254 -0.595703,-1.816406 -1e-6,-0.449211 0.09114,-0.872388 0.273437,-1.269532 0.188801,-0.397126 0.472004,-0.751943 0.84961,-1.064453 0.36458,-0.305979 0.82682,-0.546864 1.386719,-0.722656 0.566402,-0.182281 1.197911,-0.273426 1.894531,-0.273438 0.651035,1.2e-5 1.308587,0.08139 1.972656,0.244141 0.670565,0.156261 1.227205,0.348318 1.669922,0.576172 l 0,1.962891 -0.09766,0 c -0.468759,-0.345044 -1.03842,-0.634757 -1.708985,-0.869141 -0.670579,-0.240876 -1.328131,-0.361319 -1.972656,-0.361328 -0.670578,9e-6 -1.236983,0.130218 -1.699219,0.390625 -0.462243,0.253915 -0.693362,0.634774 -0.693359,1.142578 -3e-6,0.449226 0.139971,0.787768 0.419922,1.015625 0.273434,0.227871 0.716141,0.413418 1.328125,0.556641 0.338536,0.07813 0.71614,0.156256 1.132812,0.234375 0.423171,0.07813 0.774733,0.149745 1.054688,0.214843 0.852857,0.195319 1.510408,0.530605 1.972656,1.00586 0.46223,0.481775 0.69335,1.119795 0.693359,1.914062"
           style="line-height:125%;font-family:Verdana;-inkscape-font-specification:Verdana"
           id="path6043" />
        <path
           d="m -13.707031,-55.736972 -0.09766,0 c -0.20183,-0.05858 -0.465501,-0.117174 -0.791015,-0.175782 -0.325527,-0.06509 -0.611985,-0.09764 -0.859375,-0.09766 -0.787766,1.4e-5 -1.360682,0.175795 -1.71875,0.527344 -0.351566,0.345065 -0.527348,0.973319 -0.527344,1.884766 l 0,0.371093 3.310547,0 0,1.542969 -3.251953,0 0,9.365234 -1.835938,0 0,-9.365234 -1.240234,0 0,-1.542969 1.240234,0 0,-0.361328 c -2e-6,-1.29556 0.322264,-2.288398 0.966797,-2.978515 0.644528,-0.6966 1.575517,-1.044907 2.792969,-1.044922 0.41015,1.5e-5 0.777988,0.01955 1.103516,0.05859 0.332024,0.03908 0.634758,0.08465 0.908203,0.136719 l 0,1.679688"
           style="line-height:125%;font-family:Verdana;-inkscape-font-specification:Verdana"
           id="path6045" />
        <path
           d="m -3.4140625,-47.582675 -8.0371095,0 c -3e-6,0.670577 0.100909,1.256514 0.302734,1.757812 0.20182,0.494795 0.478512,0.901695 0.830079,1.220703 0.3385369,0.312502 0.7389271,0.546877 1.2011715,0.703125 0.4687443,0.156252 0.9830667,0.234376 1.5429688,0.234375 0.7421799,10e-7 1.4876219,-0.146483 2.2363281,-0.439453 0.7551985,-0.299477 1.2923074,-0.592446 1.6113281,-0.878906 l 0.097656,0 0,2.001953 c -0.6184996,0.260417 -1.2500094,0.478516 -1.8945312,0.654297 -0.6445394,0.175781 -1.3216221,0.263671 -2.03125,0.263672 -1.8099008,-10e-7 -3.2226595,-0.488281 -4.2382815,-1.464844 -1.015626,-0.983071 -1.523438,-2.376299 -1.523437,-4.179688 -10e-7,-1.783847 0.485024,-3.199861 1.455078,-4.248046 0.976559,-1.048167 2.2591097,-1.572255 3.8476561,-1.572266 1.4713464,1.1e-5 2.6041577,0.429698 3.3984375,1.289062 0.8007707,0.859384 1.201161,2.080086 1.2011719,3.66211 l 0,0.996094 m -1.7871094,-1.40625 c -0.00652,-0.963535 -0.2506599,-1.708976 -0.7324218,-2.236329 -0.4752684,-0.527334 -1.2011791,-0.791006 -2.1777344,-0.791015 -0.9830782,9e-6 -1.7675826,0.289723 -2.3535159,0.86914 -0.57943,0.579436 -0.908206,1.298836 -0.986328,2.158204 l 6.2500001,0"
           style="line-height:125%;font-family:Verdana;-inkscape-font-specification:Verdana"
           id="path6047" />
        <path
           d="m 6.1757812,-51.225254 -0.097656,0 c -0.2734457,-0.06509 -0.5403726,-0.110668 -0.8007813,-0.136718 -0.2539137,-0.03254 -0.5566477,-0.04882 -0.9082031,-0.04883 -0.5664125,9e-6 -1.1132869,0.126962 -1.640625,0.380859 -0.5273484,0.247404 -1.0351604,0.569669 -1.5234375,0.966797 l 0,7.74414 -1.83593747,0 0,-10.908203 1.83593747,0 0,1.611328 c 0.7291623,-0.585927 1.3704377,-0.999338 1.9238282,-1.240234 0.5598897,-0.247385 1.1295505,-0.371083 1.7089843,-0.371094 0.3190028,1.1e-5 0.5501224,0.0098 0.6933594,0.0293 0.1432211,0.01303 0.3580646,0.04233 0.6445312,0.08789 l 0,1.884765"
           style="line-height:125%;font-family:Verdana;-inkscape-font-specification:Verdana"
           id="path6049" />
      </g>
      <g
         transform="translate(245.17181,-155.88935)"
         id="g5676-5-7-0">
        <rect
           style="fill:#dddddd;fill-opacity:1;stroke:#000000;stroke-width:1;stroke-miterlimit:4;stroke-opacity:1;stroke-dasharray:none"
           id="rect2985-4-1-7-7-3-0-5-1-5"
           width="199"
           height="49"
           x="135.23444"
           y="-669.81635"
           transform="scale(1,-1)" />
        <text
           xml:space="preserve"
           style="font-size:40px;font-style:normal;font-weight:normal;line-height:125%;letter-spacing:0px;word-spacing:0px;fill:#000000;fill-opacity:1;stroke:none;font-family:Sans"
           x="183.3233"
           y="651.57996"
           id="text6923-9"
           sodipodi:linespacing="125%"><tspan
             sodipodi:role="line"
             x="183.3233"
             y="651.57996"
             id="tspan6925-5"><tspan
               x="183.3233"
               y="651.57996"
               style="font-size:20px;font-variant:normal;font-stretch:normal;font-family:Verdana;-inkscape-font-specification:Verdana"
               id="tspan6927-7">Local data</tspan></tspan></text>
      </g>
      <path
         style="fill:none;stroke:#000000;stroke-width:1.49999976;stroke-linecap:butt;stroke-linejoin:miter;stroke-miterlimit:4;stroke-opacity:1;stroke-dasharray:none;marker-start:none;marker-end:url(#Arrow2Lend)"
         d="m 406.19898,515.60216 0.33733,196.8329"
         id="path5280-9-79-0"
         inkscape:connector-type="polyline"
         inkscape:connector-curvature="0"
         sodipodi:nodetypes="cc" />
      <g
         transform="translate(583.24219,651.90489)"
         style="font-size:40px;font-style:normal;font-weight:normal;line-height:125%;letter-spacing:0px;word-spacing:0px;fill:#000000;fill-opacity:1;stroke:none;font-family:Sans"
         id="flowRoot5042-2">
        <path
           d="m -153.7168,-42.319004 -1.82617,0 0,-1.162109 c -0.16277,0.110678 -0.38412,0.266928 -0.66406,0.46875 -0.27345,0.195313 -0.54037,0.351563 -0.80078,0.46875 -0.306,0.14974 -0.65756,0.273437 -1.05469,0.371094 -0.39714,0.104166 -0.86264,0.156249 -1.39648,0.15625 -0.98308,-10e-7 -1.81641,-0.325521 -2.5,-0.976563 -0.6836,-0.65104 -1.0254,-1.481117 -1.02539,-2.490234 -10e-6,-0.826819 0.17578,-1.494136 0.52734,-2.001953 0.35807,-0.514317 0.86588,-0.917963 1.52344,-1.210938 0.66406,-0.292962 1.46158,-0.491529 2.39257,-0.595703 0.93099,-0.104159 1.93034,-0.182284 2.99805,-0.234375 l 0,-0.283203 c -1e-5,-0.416659 -0.0749,-0.76171 -0.22461,-1.035156 -0.14324,-0.273429 -0.35157,-0.488272 -0.625,-0.644531 -0.26042,-0.149731 -0.57292,-0.250642 -0.9375,-0.302735 -0.36459,-0.05207 -0.74545,-0.07811 -1.14258,-0.07813 -0.48177,1e-5 -1.01888,0.06511 -1.61132,0.195313 -0.59246,0.123707 -1.20443,0.305998 -1.83594,0.546875 l -0.0977,0 0,-1.865235 c 0.35807,-0.09764 0.87565,-0.205067 1.55274,-0.322265 0.67708,-0.117177 1.34439,-0.17577 2.00195,-0.175782 0.76822,1.2e-5 1.43554,0.06512 2.00195,0.195313 0.57291,0.123709 1.0677,0.338552 1.48438,0.644531 0.41014,0.299489 0.72264,0.686859 0.9375,1.16211 0.21483,0.475269 0.32225,1.064461 0.32226,1.767578 l 0,7.402343 m -1.82617,-2.685546 0,-3.03711 c -0.5599,0.03256 -1.22071,0.08139 -1.98242,0.146485 -0.75521,0.06511 -1.35417,0.15951 -1.79688,0.283203 -0.52734,0.149744 -0.95378,0.384119 -1.27929,0.703125 -0.32553,0.312504 -0.48829,0.745446 -0.48828,1.298828 -1e-5,0.625002 0.1888,1.097007 0.5664,1.416015 0.3776,0.312502 0.95377,0.468752 1.72852,0.46875 0.64452,2e-6 1.23372,-0.123696 1.76758,-0.371093 0.53384,-0.253905 1.02863,-0.556639 1.48437,-0.908203"
           style="font-size:20px;font-variant:normal;font-stretch:normal;font-family:Verdana;-inkscape-font-specification:Verdana"
           id="path6052" />
        <path
           d="m -141.31445,-42.319004 -1.83594,0 0,-1.142578 c -0.52735,0.45573 -1.07748,0.810547 -1.65039,1.064453 -0.57292,0.253906 -1.19467,0.380859 -1.86524,0.38086 -1.30208,-10e-7 -2.33724,-0.501302 -3.10546,-1.503906 -0.76172,-1.002602 -1.14258,-2.392575 -1.14258,-4.169922 0,-0.924473 0.1302,-1.74804 0.39062,-2.470703 0.26693,-0.722648 0.625,-1.337882 1.07422,-1.845704 0.44271,-0.494781 0.95703,-0.872385 1.54297,-1.132812 0.59244,-0.260406 1.20442,-0.390614 1.83594,-0.390625 0.57291,1.1e-5 1.08072,0.06186 1.52344,0.185547 0.4427,0.117198 0.90819,0.302745 1.39648,0.55664 l 0,-4.726562 1.83594,0 0,15.195312 m -1.83594,-2.685546 0,-6.259766 c -0.4948,-0.221345 -0.93751,-0.37434 -1.32813,-0.458984 -0.39063,-0.08463 -0.81706,-0.126944 -1.27929,-0.126954 -1.02865,10e-6 -1.82943,0.358082 -2.40235,1.074219 -0.57292,0.716154 -0.85937,1.731778 -0.85937,3.046875 0,1.295577 0.22135,2.281904 0.66406,2.958985 0.44271,0.670574 1.15234,1.00586 2.12891,1.005859 0.52082,10e-7 1.04817,-0.113931 1.58203,-0.341797 0.53385,-0.234373 1.03189,-0.533852 1.49414,-0.898437"
           style="font-size:20px;font-variant:normal;font-stretch:normal;font-family:Verdana;-inkscape-font-specification:Verdana"
           id="path6054" />
        <path
           d="m -121.54883,-42.319004 -1.83594,0 0,-6.210937 c 0,-0.501295 -0.0293,-0.970045 -0.0879,-1.40625 -0.0586,-0.4427 -0.16602,-0.787752 -0.32226,-1.035156 -0.16277,-0.273429 -0.39715,-0.475252 -0.70313,-0.605469 -0.30599,-0.136709 -0.70313,-0.205069 -1.1914,-0.205078 -0.50131,9e-6 -1.0254,0.123707 -1.57227,0.371094 -0.54688,0.247404 -1.07097,0.563159 -1.57226,0.947265 l 0,8.144531 -1.83594,0 0,-15.195312 1.83594,0 0,5.498047 c 0.57291,-0.47525 1.16536,-0.846344 1.77734,-1.113281 0.61197,-0.266916 1.24023,-0.40038 1.88476,-0.400391 1.17838,1.1e-5 2.07682,0.354828 2.69532,1.064453 0.61848,0.709645 0.92772,1.731779 0.92773,3.066406 l 0,7.080078"
           style="font-size:20px;font-variant:normal;font-stretch:normal;font-family:Verdana;-inkscape-font-specification:Verdana"
           id="path6056" />
        <path
           d="m -108.7168,-47.768222 c -10e-6,1.777347 -0.45574,3.18034 -1.36718,4.208984 -0.91147,1.028646 -2.13217,1.542968 -3.66211,1.542969 -1.54298,-10e-7 -2.77019,-0.514323 -3.68164,-1.542969 -0.90495,-1.028644 -1.35743,-2.431637 -1.35743,-4.208984 0,-1.777337 0.45248,-3.18033 1.35743,-4.208985 0.91145,-1.035145 2.13866,-1.552723 3.68164,-1.552734 1.52994,1.1e-5 2.75064,0.517589 3.66211,1.552734 0.91144,1.028655 1.36717,2.431648 1.36718,4.208985 m -1.89453,0 c -1e-5,-1.412754 -0.2767,-2.46093 -0.83008,-3.144532 -0.55339,-0.690094 -1.32162,-1.035146 -2.30468,-1.035156 -0.9961,1e-5 -1.77084,0.345062 -2.32422,1.035156 -0.54688,0.683602 -0.82032,1.731778 -0.82032,3.144532 0,1.367191 0.27669,2.405602 0.83008,3.115234 0.55338,0.703127 1.32487,1.054689 2.31446,1.054688 0.97655,1e-6 1.74152,-0.348306 2.29492,-1.044922 0.55989,-0.703122 0.83983,-1.744788 0.83984,-3.125"
           style="font-size:20px;font-variant:normal;font-stretch:normal;font-family:Verdana;-inkscape-font-specification:Verdana"
           id="path6058" />
        <path
           d="m -97.798828,-43.002597 c -0.611989,0.292969 -1.19467,0.520833 -1.748047,0.683593 -0.546885,0.162761 -1.129565,0.244141 -1.748045,0.244141 -0.78777,0 -1.51042,-0.113932 -2.16797,-0.341797 -0.65756,-0.234375 -1.22071,-0.585937 -1.68945,-1.054687 -0.47527,-0.468749 -0.8431,-1.061196 -1.10352,-1.777344 -0.26042,-0.716142 -0.39063,-1.55273 -0.39062,-2.509766 -1e-5,-1.783847 0.48828,-3.183585 1.46484,-4.199218 0.98307,-1.015615 2.27864,-1.523427 3.88672,-1.523438 0.62499,1.1e-5 1.23697,0.0879 1.835936,0.263672 0.60546,0.175792 1.158844,0.390635 1.660156,0.644531 l 0,2.041016 -0.09766,0 c -0.559905,-0.43619 -1.139332,-0.771476 -1.738282,-1.00586 -0.592454,-0.234365 -1.171884,-0.351553 -1.738284,-0.351562 -1.04167,9e-6 -1.86524,0.351572 -2.4707,1.054687 -0.59896,0.696623 -0.89844,1.722012 -0.89844,3.076172 0,1.315109 0.29297,2.327477 0.87891,3.03711 0.59244,0.703126 1.42252,1.054688 2.49023,1.054687 0.37109,10e-7 0.74869,-0.04883 1.13282,-0.146484 0.384102,-0.09765 0.729154,-0.224608 1.035152,-0.38086 0.266918,-0.136716 0.517569,-0.279945 0.751953,-0.429687 0.234366,-0.156248 0.419912,-0.289711 0.556641,-0.400391 l 0.09766,0 0,2.021485"
           style="font-size:20px;font-variant:normal;font-stretch:normal;font-family:Verdana;-inkscape-font-specification:Verdana"
           id="path6060" />
        <path
           d="m -156.32422,-30.736972 -0.0977,0 c -0.20184,-0.05858 -0.46551,-0.117174 -0.79102,-0.175782 -0.32553,-0.06509 -0.61199,-0.09764 -0.85938,-0.09766 -0.78776,1.4e-5 -1.36068,0.175795 -1.71875,0.527344 -0.35156,0.345065 -0.52734,0.973319 -0.52734,1.884766 l 0,0.371093 3.31055,0 0,1.542969 -3.25196,0 0,9.365234 -1.83593,0 0,-9.365234 -1.24024,0 0,-1.542969 1.24024,0 0,-0.361328 c -1e-5,-1.29556 0.32226,-2.288398 0.96679,-2.978515 0.64453,-0.6966 1.57552,-1.044907 2.79297,-1.044922 0.41015,1.5e-5 0.77799,0.01955 1.10352,0.05859 0.33202,0.03908 0.63476,0.08465 0.9082,0.136719 l 0,1.679688"
           style="font-size:20px;font-variant:normal;font-stretch:normal;font-family:Verdana;-inkscape-font-specification:Verdana"
           id="path6062" />
        <path
           d="m -153.18945,-30.053379 -2.07032,0 0,-1.904296 2.07032,0 0,1.904296 m -0.11719,12.734375 -1.83594,0 0,-10.908203 1.83594,0 0,10.908203"
           style="font-size:20px;font-variant:normal;font-stretch:normal;font-family:Verdana;-inkscape-font-specification:Verdana"
           id="path6064" />
        <path
           d="m -147.87695,-17.319004 -1.83594,0 0,-15.195312 1.83594,0 0,15.195312"
           style="font-size:20px;font-variant:normal;font-stretch:normal;font-family:Verdana;-inkscape-font-specification:Verdana"
           id="path6066" />
        <path
           d="m -135.17187,-22.582675 -8.03711,0 c -1e-5,0.670577 0.1009,1.256514 0.30273,1.757812 0.20182,0.494795 0.47851,0.901695 0.83008,1.220703 0.33854,0.312502 0.73893,0.546877 1.20117,0.703125 0.46874,0.156252 0.98307,0.234376 1.54297,0.234375 0.74218,1e-6 1.48762,-0.146483 2.23633,-0.439453 0.7552,-0.299477 1.2923,-0.592446 1.61133,-0.878906 l 0.0977,0 0,2.001953 c -0.6185,0.260417 -1.25001,0.478516 -1.89453,0.654297 -0.64454,0.175781 -1.32162,0.263671 -2.03125,0.263672 -1.8099,-10e-7 -3.22266,-0.488281 -4.23828,-1.464844 -1.01563,-0.983071 -1.52344,-2.376299 -1.52344,-4.179688 0,-1.783847 0.48503,-3.199861 1.45508,-4.248046 0.97656,-1.048167 2.25911,-1.572255 3.84766,-1.572266 1.47134,1.1e-5 2.60415,0.429698 3.39843,1.289062 0.80077,0.859384 1.20116,2.080086 1.20118,3.66211 l 0,0.996094 m -1.78711,-1.40625 c -0.007,-0.963535 -0.25066,-1.708976 -0.73243,-2.236329 -0.47526,-0.527334 -1.20118,-0.791006 -2.17773,-0.791015 -0.98308,9e-6 -1.76758,0.289723 -2.35352,0.86914 -0.57943,0.579436 -0.9082,1.298836 -0.98632,2.158204 l 6.25,0"
           style="font-size:20px;font-variant:normal;font-stretch:normal;font-family:Verdana;-inkscape-font-specification:Verdana"
           id="path6068" />
        <path
           d="m -119.69336,-17.41666 c -0.34506,0.09115 -0.72266,0.166016 -1.13281,0.22461 -0.40365,0.05859 -0.76498,0.08789 -1.08399,0.08789 -1.11328,0 -1.95963,-0.299479 -2.53906,-0.898437 -0.57943,-0.598957 -0.86914,-1.559243 -0.86914,-2.88086 l 0,-5.800781 -1.24023,0 0,-1.542969 1.24023,0 0,-3.134765 1.83594,0 0,3.134765 3.78906,0 0,1.542969 -3.78906,0 0,4.970703 c -10e-6,0.572921 0.013,1.022139 0.0391,1.347656 0.026,0.319014 0.11718,0.618492 0.27344,0.898438 0.14322,0.260418 0.33854,0.452476 0.58594,0.576172 0.2539,0.117189 0.63801,0.175782 1.15234,0.175781 0.29947,1e-6 0.61197,-0.04232 0.9375,-0.126953 0.32551,-0.09114 0.55989,-0.166014 0.70312,-0.224609 l 0.0977,0 0,1.65039"
           style="font-size:20px;font-variant:normal;font-stretch:normal;font-family:Verdana;-inkscape-font-specification:Verdana"
           id="path6070" />
        <path
           d="m -110.66016,-26.225254 -0.0977,0 c -0.27345,-0.06509 -0.54038,-0.110668 -0.80078,-0.136718 -0.25392,-0.03254 -0.55665,-0.04882 -0.90821,-0.04883 -0.56641,9e-6 -1.11328,0.126962 -1.64062,0.380859 -0.52735,0.247404 -1.03516,0.569669 -1.52344,0.966797 l 0,7.74414 -1.83594,0 0,-10.908203 1.83594,0 0,1.611328 c 0.72916,-0.585927 1.37044,-0.999338 1.92383,-1.240234 0.55989,-0.247385 1.12955,-0.371083 1.70898,-0.371094 0.31901,1.1e-5 0.55013,0.0098 0.69336,0.0293 0.14322,0.01303 0.35807,0.04233 0.64453,0.08789 l 0,1.884765"
           style="font-size:20px;font-variant:normal;font-stretch:normal;font-family:Verdana;-inkscape-font-specification:Verdana"
           id="path6072" />
        <path
           d="m -100.43555,-17.319004 -1.82617,0 0,-1.162109 c -0.16277,0.110678 -0.38412,0.266928 -0.66406,0.46875 -0.27345,0.195313 -0.54037,0.351563 -0.80078,0.46875 -0.306,0.14974 -0.65756,0.273437 -1.05469,0.371094 -0.39714,0.104166 -0.86264,0.156249 -1.39648,0.15625 -0.98308,-10e-7 -1.81641,-0.325521 -2.5,-0.976563 -0.6836,-0.65104 -1.0254,-1.481117 -1.0254,-2.490234 0,-0.826819 0.17579,-1.494136 0.52735,-2.001953 0.35807,-0.514317 0.86588,-0.917963 1.52344,-1.210938 0.66406,-0.292962 1.46158,-0.491529 2.39257,-0.595703 0.93099,-0.104159 1.93034,-0.182284 2.99805,-0.234375 l 0,-0.283203 c -1e-5,-0.416659 -0.0749,-0.76171 -0.22461,-1.035156 -0.14324,-0.273429 -0.35157,-0.488272 -0.625,-0.644531 -0.26042,-0.149731 -0.57292,-0.250642 -0.9375,-0.302735 -0.36459,-0.05207 -0.74545,-0.07812 -1.14258,-0.07813 -0.48177,10e-6 -1.01888,0.06511 -1.61132,0.195313 -0.59246,0.123707 -1.20443,0.305998 -1.83594,0.546875 l -0.0977,0 0,-1.865235 c 0.35807,-0.09764 0.87565,-0.205067 1.55274,-0.322265 0.67708,-0.117177 1.34439,-0.17577 2.00195,-0.175782 0.76822,1.2e-5 1.43554,0.06512 2.00195,0.195313 0.57291,0.123709 1.0677,0.338552 1.48438,0.644531 0.41014,0.299489 0.72264,0.686859 0.9375,1.16211 0.21483,0.475269 0.32225,1.064461 0.32226,1.767578 l 0,7.402343 m -1.82617,-2.685546 0,-3.03711 c -0.5599,0.03256 -1.22071,0.08139 -1.98242,0.146485 -0.75521,0.06511 -1.35417,0.15951 -1.79688,0.283203 -0.52734,0.149744 -0.95378,0.384119 -1.27929,0.703125 -0.32553,0.312504 -0.48829,0.745446 -0.48828,1.298828 -1e-5,0.625002 0.1888,1.097007 0.5664,1.416015 0.3776,0.312502 0.95377,0.468752 1.72852,0.46875 0.64452,2e-6 1.23372,-0.123696 1.76758,-0.371093 0.53384,-0.253905 1.02863,-0.556639 1.48437,-0.908203"
           style="font-size:20px;font-variant:normal;font-stretch:normal;font-family:Verdana;-inkscape-font-specification:Verdana"
           id="path6074" />
        <path
           d="m -87.759766,-17.319004 -1.835937,0 0,-6.210937 c -9e-6,-0.501295 -0.02931,-0.970045 -0.08789,-1.40625 -0.0586,-0.4427 -0.166024,-0.787752 -0.322265,-1.035156 -0.162769,-0.273429 -0.397144,-0.475252 -0.703125,-0.605469 -0.305998,-0.136709 -0.703133,-0.205069 -1.191407,-0.205078 -0.501308,9e-6 -1.025396,0.123707 -1.572265,0.371094 -0.54688,0.247404 -1.070968,0.563159 -1.572266,0.947265 l 0,8.144531 -1.835937,0 0,-10.908203 1.835937,0 0,1.210938 c 0.572913,-0.47525 1.16536,-0.846344 1.777344,-1.113281 0.611973,-0.266916 1.240228,-0.40038 1.884766,-0.400391 1.178376,1.1e-5 2.076813,0.354828 2.695312,1.064453 0.618479,0.709645 0.927723,1.731779 0.927734,3.066406 l 0,7.080078"
           style="font-size:20px;font-variant:normal;font-stretch:normal;font-family:Verdana;-inkscape-font-specification:Verdana"
           id="path6076" />
        <path
           d="m -76.431641,-20.463535 c -9e-6,0.996096 -0.41342,1.813153 -1.240234,2.451172 -0.82032,0.638021 -1.943366,0.957031 -3.369141,0.957031 -0.807295,0 -1.549482,-0.0944 -2.226562,-0.283203 -0.670575,-0.195312 -1.233726,-0.4069 -1.689453,-0.634765 l 0,-2.060547 0.09766,0 c 0.579425,0.4362 1.223956,0.784507 1.933594,1.044922 0.709631,0.253907 1.389969,0.38086 2.041015,0.380859 0.807286,1e-6 1.438796,-0.130207 1.894532,-0.390625 0.455721,-0.260415 0.683586,-0.670571 0.683593,-1.230469 -7e-6,-0.429684 -0.123705,-0.755205 -0.371093,-0.976562 -0.247403,-0.22135 -0.722663,-0.410152 -1.425782,-0.566407 -0.260422,-0.05859 -0.602218,-0.126948 -1.02539,-0.205078 -0.416671,-0.07812 -0.79753,-0.162755 -1.142578,-0.253906 -0.957034,-0.253901 -1.637372,-0.624994 -2.041016,-1.113281 -0.397137,-0.494785 -0.595704,-1.100254 -0.595703,-1.816406 -10e-7,-0.449211 0.09114,-0.872388 0.273437,-1.269532 0.188801,-0.397126 0.472004,-0.751943 0.84961,-1.064453 0.36458,-0.305979 0.82682,-0.546864 1.386719,-0.722656 0.566402,-0.182281 1.197911,-0.273426 1.894531,-0.273438 0.651035,1.2e-5 1.308587,0.08139 1.972656,0.244141 0.670565,0.156261 1.227205,0.348318 1.669922,0.576172 l 0,1.962891 -0.09766,0 c -0.468759,-0.345044 -1.03842,-0.634757 -1.708985,-0.869141 -0.670579,-0.240876 -1.328131,-0.361319 -1.972656,-0.361328 -0.670578,9e-6 -1.236983,0.130218 -1.699219,0.390625 -0.462243,0.253915 -0.693362,0.634774 -0.693359,1.142578 -3e-6,0.449226 0.139971,0.787768 0.419922,1.015625 0.273434,0.227871 0.716141,0.413418 1.328125,0.556641 0.338536,0.07813 0.71614,0.156256 1.132812,0.234375 0.423171,0.07813 0.774733,0.149745 1.054688,0.214843 0.852857,0.195319 1.510408,0.530605 1.972656,1.00586 0.46223,0.481775 0.69335,1.119795 0.693359,1.914062"
           style="font-size:20px;font-variant:normal;font-stretch:normal;font-family:Verdana;-inkscape-font-specification:Verdana"
           id="path6078" />
        <path
           d="m -67.925781,-30.736972 -0.09766,0 c -0.201831,-0.05858 -0.465502,-0.117174 -0.791016,-0.175782 -0.325527,-0.06509 -0.611985,-0.09764 -0.859375,-0.09766 -0.787766,1.4e-5 -1.360682,0.175795 -1.71875,0.527344 -0.351566,0.345065 -0.527348,0.973319 -0.527344,1.884766 l 0,0.371093 3.310547,0 0,1.542969 -3.251953,0 0,9.365234 -1.835938,0 0,-9.365234 -1.240234,0 0,-1.542969 1.240234,0 0,-0.361328 c -2e-6,-1.29556 0.322264,-2.288398 0.966797,-2.978515 0.644528,-0.6966 1.575517,-1.044907 2.792969,-1.044922 0.41015,1.5e-5 0.777988,0.01955 1.103516,0.05859 0.332024,0.03908 0.634758,0.08465 0.908203,0.136719 l 0,1.679688"
           style="font-size:20px;font-variant:normal;font-stretch:normal;font-family:Verdana;-inkscape-font-specification:Verdana"
           id="path6080" />
        <path
           d="m -57.632812,-22.582675 -8.03711,0 c -3e-6,0.670577 0.100909,1.256514 0.302735,1.757812 0.201819,0.494795 0.478511,0.901695 0.830078,1.220703 0.338537,0.312502 0.738927,0.546877 1.201172,0.703125 0.468744,0.156252 0.983066,0.234376 1.542968,0.234375 0.74218,1e-6 1.487622,-0.146483 2.236328,-0.439453 0.755199,-0.299477 1.292308,-0.592446 1.611329,-0.878906 l 0.09766,0 0,2.001953 c -0.6185,0.260417 -1.25001,0.478516 -1.894531,0.654297 -0.64454,0.175781 -1.321623,0.263671 -2.03125,0.263672 -1.809901,-10e-7 -3.22266,-0.488281 -4.238282,-1.464844 -1.015626,-0.983071 -1.523438,-2.376299 -1.523437,-4.179688 -10e-7,-1.783847 0.485024,-3.199861 1.455078,-4.248046 0.976559,-1.048167 2.25911,-1.572255 3.847656,-1.572266 1.471346,1.1e-5 2.604158,0.429698 3.398438,1.289062 0.80077,0.859384 1.201161,2.080086 1.201172,3.66211 l 0,0.996094 m -1.78711,-1.40625 c -0.0065,-0.963535 -0.25066,-1.708976 -0.732422,-2.236329 -0.475268,-0.527334 -1.201179,-0.791006 -2.177734,-0.791015 -0.983078,9e-6 -1.767583,0.289723 -2.353516,0.86914 -0.57943,0.579436 -0.908206,1.298836 -0.986328,2.158204 l 6.25,0"
           style="font-size:20px;font-variant:normal;font-stretch:normal;font-family:Verdana;-inkscape-font-specification:Verdana"
           id="path6082" />
        <path
           d="m -48.042969,-26.225254 -0.09766,0 c -0.273446,-0.06509 -0.540373,-0.110668 -0.800781,-0.136718 -0.253914,-0.03254 -0.556648,-0.04882 -0.908203,-0.04883 -0.566413,9e-6 -1.113287,0.126962 -1.640625,0.380859 -0.527349,0.247404 -1.035161,0.569669 -1.523438,0.966797 l 0,7.74414 -1.835937,0 0,-10.908203 1.835937,0 0,1.611328 c 0.729162,-0.585927 1.370438,-0.999338 1.923828,-1.240234 0.55989,-0.247385 1.129551,-0.371083 1.708985,-0.371094 0.319002,1.1e-5 0.550122,0.0098 0.693359,0.0293 0.143221,0.01303 0.358065,0.04233 0.644531,0.08789 l 0,1.884765"
           style="font-size:20px;font-variant:normal;font-stretch:normal;font-family:Verdana;-inkscape-font-specification:Verdana"
           id="path6084" />
      </g>
      <g
         transform="translate(-54.828186,294.11065)"
         id="g5676-5-7-5">
        <rect
           style="fill:#dddddd;fill-opacity:1;stroke:#000000;stroke-width:1;stroke-miterlimit:4;stroke-opacity:1;stroke-dasharray:none"
           id="rect2985-4-1-7-7-3-0-5-1-91"
           width="199"
           height="49"
           x="135.23444"
           y="-669.81635"
           transform="scale(1,-1)" />
        <text
           xml:space="preserve"
           style="font-size:40px;font-style:normal;font-weight:normal;line-height:125%;letter-spacing:0px;word-spacing:0px;fill:#000000;fill-opacity:1;stroke:none;font-family:Sans"
           x="194.87115"
           y="651.57996"
           id="text6923-86"
           sodipodi:linespacing="125%"><tspan
             sodipodi:role="line"
             x="194.87115"
             y="651.57996"
             id="tspan6925-4"
             style="font-family:Verdana;-inkscape-font-specification:Verdana"><tspan
               x="194.87115"
               y="651.57996"
               style="font-size:20px;font-variant:normal;font-stretch:normal;font-family:Verdana;-inkscape-font-specification:Verdana"
               id="tspan6927-2">Website</tspan></tspan></text>
      </g>
      <path
         style="fill:none;stroke:#000000;stroke-width:1.49999988;stroke-linecap:butt;stroke-linejoin:miter;stroke-miterlimit:4;stroke-opacity:1;stroke-dasharray:none;marker-start:none;marker-end:url(#Arrow2Lend)"
         d="m 106.38115,815.17703 0.15303,97.67614"
         id="path5280-9-79-8"
         inkscape:connector-type="polyline"
         inkscape:connector-curvature="0"
         sodipodi:nodetypes="cc" />
      <g
         transform="translate(282.09961,914.40138)"
         style="font-size:40px;font-style:normal;font-weight:normal;line-height:125%;letter-spacing:0px;word-spacing:0px;fill:#000000;fill-opacity:1;stroke:none;font-family:Sans"
         id="flowRoot5042-6">
        <path
           d="m -152.59375,-47.856113 c -1e-5,0.911463 -0.13022,1.731775 -0.39062,2.460938 -0.25392,0.729169 -0.59897,1.341147 -1.03516,1.835937 -0.46225,0.514324 -0.97006,0.901693 -1.52344,1.162109 -0.55339,0.253906 -1.16212,0.380859 -1.82617,0.38086 -0.6185,-10e-7 -1.15886,-0.07487 -1.62109,-0.22461 -0.46225,-0.143229 -0.91798,-0.338541 -1.36719,-0.585937 l -0.11719,0.507812 -1.71875,0 0,-15.195312 1.83594,0 0,5.429687 c 0.51432,-0.423167 1.06119,-0.768218 1.64062,-1.035156 0.57942,-0.273426 1.23047,-0.410145 1.95313,-0.410156 1.28905,1.1e-5 2.30468,0.494802 3.04687,1.484375 0.74869,0.989592 1.12304,2.386075 1.12305,4.189453 m -1.89453,0.04883 c -1e-5,-1.302076 -0.21485,-2.288404 -0.64453,-2.958984 -0.4297,-0.677074 -1.12306,-1.015616 -2.08008,-1.015625 -0.53386,9e-6 -1.07423,0.117197 -1.62109,0.351562 -0.54688,0.227874 -1.0547,0.524097 -1.52344,0.888672 l 0,6.25 c 0.52083,0.234377 0.96679,0.397137 1.33789,0.488281 0.3776,0.09115 0.80403,0.13672 1.2793,0.136719 1.01561,10e-7 1.80988,-0.332029 2.38281,-0.996094 0.57942,-0.67057 0.86913,-1.718746 0.86914,-3.144531"
           style="font-size:20px;font-variant:normal;font-stretch:normal;font-family:Verdana;-inkscape-font-specification:Verdana"
           id="path6087" />
        <path
           d="m -142.92578,-51.225254 -0.0977,0 c -0.27344,-0.06509 -0.54037,-0.110668 -0.80078,-0.136718 -0.25391,-0.03254 -0.55665,-0.04882 -0.9082,-0.04883 -0.56641,9e-6 -1.11329,0.126962 -1.64063,0.380859 -0.52735,0.247404 -1.03516,0.569669 -1.52343,0.966797 l 0,7.74414 -1.83594,0 0,-10.908203 1.83594,0 0,1.611328 c 0.72916,-0.585927 1.37043,-0.999338 1.92382,-1.240234 0.55989,-0.247385 1.12955,-0.371083 1.70899,-0.371094 0.319,1.1e-5 0.55012,0.0098 0.69336,0.0293 0.14322,0.01303 0.35806,0.04233 0.64453,0.08789 l 0,1.884765"
           style="font-size:20px;font-variant:normal;font-stretch:normal;font-family:Verdana;-inkscape-font-specification:Verdana"
           id="path6089" />
        <path
           d="m -131.88086,-47.768222 c -10e-6,1.777347 -0.45574,3.18034 -1.36719,4.208984 -0.91146,1.028646 -2.13217,1.542968 -3.66211,1.542969 -1.54297,-10e-7 -2.77018,-0.514323 -3.68164,-1.542969 -0.90495,-1.028644 -1.35742,-2.431637 -1.35742,-4.208984 0,-1.777337 0.45247,-3.18033 1.35742,-4.208985 0.91146,-1.035145 2.13867,-1.552723 3.68164,-1.552734 1.52994,1.1e-5 2.75065,0.517589 3.66211,1.552734 0.91145,1.028655 1.36718,2.431648 1.36719,4.208985 m -1.89453,0 c -1e-5,-1.412754 -0.2767,-2.46093 -0.83008,-3.144532 -0.55339,-0.690094 -1.32162,-1.035146 -2.30469,-1.035156 -0.9961,1e-5 -1.77083,0.345062 -2.32421,1.035156 -0.54688,0.683602 -0.82032,1.731778 -0.82032,3.144532 0,1.367191 0.27669,2.405602 0.83008,3.115234 0.55338,0.703127 1.32487,1.054689 2.31445,1.054688 0.97656,1e-6 1.74153,-0.348306 2.29493,-1.044922 0.55988,-0.703122 0.83983,-1.744788 0.83984,-3.125"
           style="font-size:20px;font-variant:normal;font-stretch:normal;font-family:Verdana;-inkscape-font-specification:Verdana"
           id="path6091" />
        <path
           d="m -115.30859,-53.227207 -2.8418,10.908203 -1.69922,0 -2.80273,-8.408203 -2.78321,8.408203 -1.68945,0 -2.87109,-10.908203 1.91406,0 2.00195,8.447266 2.72461,-8.447266 1.51367,0 2.79297,8.447266 1.89453,-8.447266 1.84571,0"
           style="font-size:20px;font-variant:normal;font-stretch:normal;font-family:Verdana;-inkscape-font-specification:Verdana"
           id="path6093" />
        <path
           d="m -104.86914,-45.463535 c -1e-5,0.996096 -0.41342,1.813153 -1.24024,2.451172 -0.82032,0.638021 -1.94336,0.957031 -3.36914,0.957031 -0.80729,0 -1.54948,-0.0944 -2.22656,-0.283203 -0.67057,-0.195312 -1.23372,-0.4069 -1.68945,-0.634765 l 0,-2.060547 0.0977,0 c 0.57943,0.4362 1.22396,0.784507 1.9336,1.044922 0.70963,0.253907 1.38997,0.38086 2.04101,0.380859 0.80729,10e-7 1.4388,-0.130207 1.89454,-0.390625 0.45572,-0.260415 0.68358,-0.670571 0.68359,-1.230469 -1e-5,-0.429684 -0.12371,-0.755205 -0.37109,-0.976562 -0.24741,-0.22135 -0.72267,-0.410152 -1.42579,-0.566407 -0.26042,-0.05859 -0.60221,-0.126948 -1.02539,-0.205078 -0.41667,-0.07812 -0.79753,-0.162755 -1.14257,-0.253906 -0.95704,-0.253901 -1.63738,-0.624994 -2.04102,-1.113281 -0.39714,-0.494785 -0.5957,-1.100254 -0.5957,-1.816406 0,-0.449211 0.0911,-0.872388 0.27343,-1.269532 0.1888,-0.397126 0.47201,-0.751943 0.84961,-1.064453 0.36458,-0.305979 0.82682,-0.546864 1.38672,-0.722656 0.5664,-0.182281 1.19791,-0.273426 1.89453,-0.273438 0.65104,1.2e-5 1.30859,0.08139 1.97266,0.244141 0.67056,0.156261 1.2272,0.348318 1.66992,0.576172 l 0,1.962891 -0.0977,0 c -0.46876,-0.345044 -1.03842,-0.634757 -1.70899,-0.869141 -0.67058,-0.240876 -1.32813,-0.361319 -1.97266,-0.361328 -0.67057,9e-6 -1.23698,0.130218 -1.69921,0.390625 -0.46225,0.253915 -0.69337,0.634774 -0.69336,1.142578 -1e-5,0.449226 0.13997,0.787768 0.41992,1.015625 0.27343,0.227871 0.71614,0.413418 1.32812,0.556641 0.33854,0.07813 0.71614,0.156256 1.13282,0.234375 0.42317,0.07813 0.77473,0.149745 1.05468,0.214843 0.85286,0.195319 1.51041,0.530605 1.97266,1.00586 0.46223,0.481775 0.69335,1.119795 0.69336,1.914062"
           style="font-size:20px;font-variant:normal;font-stretch:normal;font-family:Verdana;-inkscape-font-specification:Verdana"
           id="path6095" />
        <path
           d="m -93.101562,-47.582675 -8.037108,0 c 0,0.670577 0.10091,1.256514 0.30273,1.757812 0.20182,0.494795 0.47851,0.901695 0.83008,1.220703 0.338538,0.312502 0.738928,0.546877 1.201173,0.703125 0.468744,0.156252 0.983066,0.234376 1.542968,0.234375 0.74218,10e-7 1.487622,-0.146483 2.236328,-0.439453 0.755199,-0.299477 1.292308,-0.592446 1.611329,-0.878906 l 0.09766,0 0,2.001953 c -0.6185,0.260417 -1.25001,0.478516 -1.894531,0.654297 -0.64454,0.175781 -1.321623,0.263671 -2.03125,0.263672 -1.809901,-10e-7 -3.222663,-0.488281 -4.238283,-1.464844 -1.01563,-0.983071 -1.52344,-2.376299 -1.52344,-4.179688 0,-1.783847 0.48503,-3.199861 1.45508,-4.248046 0.97656,-1.048167 2.259112,-1.572255 3.847658,-1.572266 1.471346,1.1e-5 2.604158,0.429698 3.398438,1.289062 0.80077,0.859384 1.201161,2.080086 1.201172,3.66211 l 0,0.996094 m -1.78711,-1.40625 c -0.0065,-0.963535 -0.25066,-1.708976 -0.732422,-2.236329 -0.475268,-0.527334 -1.201179,-0.791006 -2.177734,-0.791015 -0.983078,9e-6 -1.767583,0.289723 -2.353512,0.86914 -0.57943,0.579436 -0.90821,1.298836 -0.98633,2.158204 l 6.249998,0"
           style="font-size:20px;font-variant:normal;font-stretch:normal;font-family:Verdana;-inkscape-font-specification:Verdana"
           id="path6097" />
      </g>
      <g
         id="g5981"
         transform="translate(0,49.999998)">
        <rect
           style="fill:#95c14b;fill-opacity:1;stroke:#000000;stroke-width:1;stroke-miterlimit:4;stroke-opacity:1;stroke-dasharray:none"
           id="rect2985-4-1-7-7-3-0-5-1-9"
           width="499"
           height="99"
           x="80.40625"
           y="-763.927"
           transform="scale(1,-1)" />
        <text
           xml:space="preserve"
           style="font-size:40px;font-style:normal;font-weight:normal;line-height:125%;letter-spacing:0px;word-spacing:0px;fill:#000000;fill-opacity:1;stroke:none;font-family:Sans"
           x="162.05469"
           y="720.06561"
           id="text6923-8"
           sodipodi:linespacing="125%"><tspan
             sodipodi:role="line"
             x="162.05469"
             y="720.06561"
             id="tspan6925-8"><tspan
               x="162.05469"
               y="720.06561"
               style="font-size:20px;font-variant:normal;font-stretch:normal;font-family:Verdana;-inkscape-font-specification:Verdana"
               id="tspan6927-4">Bird profile data repository on S3</tspan></tspan></text>
        <g
           id="g5564"
           transform="matrix(0.65333065,0,0,0.65333065,505.00281,681.76047)">
          <polygon
             id="polygon5566"
             points="21.54,23.23 16.08,25.96 16.08,73.93 21.54,76.66 34.94,49.94 21.54,23.23 "
             style="fill:#8c3123" />
          <polygon
             id="polygon5568"
             points="50,69.76 21.54,76.65 21.54,23.23 50,30.12 63.45,50.02 50,69.76 "
             style="fill:#e05243" />
          <polygon
             id="polygon5570"
             points="50,69.76 78.45,76.65 83.37,50.62 78.45,23.23 50,30.12 50,69.76 "
             style="fill:#8c3123" />
          <polygon
             id="polygon5572"
             points="78.45,76.66 78.45,23.23 78.45,23.23 83.92,25.96 83.92,73.93 "
             style="fill:#e05243" />
          <polygon
             id="polygon5574"
             points="37.59,58.78 50,60.37 59.84,50.02 50,39.68 37.59,41.24 37.59,58.78 "
             style="fill:#8c3123" />
          <polygon
             id="polygon5576"
             points="50,9 62.41,32.75 62.41,32.75 50,35.01 37.59,32.75 "
             style="fill:#5e1f18" />
          <polygon
             id="polygon5578"
             points="50,91 62.41,67.25 62.41,67.25 50,64.97 37.59,67.25 "
             style="fill:#f2b0a9" />
          <polygon
             id="polygon5580"
             points="62.41,15.2 62.41,32.75 62.41,32.75 50,29.68 50,9 "
             style="fill:#e05243" />
          <polygon
             id="polygon5582"
             points="37.59,15.2 37.59,32.75 37.59,32.75 50,29.68 50,9 "
             style="fill:#8c3123" />
          <polygon
             id="polygon5584"
             points="50,70.32 50,91 50,91 62.41,84.8 62.41,67.25 "
             style="fill:#e05243" />
          <polygon
             id="polygon5586"
             points="50,70.32 50,91 50,91 37.59,84.8 37.59,67.25 "
             style="fill:#8c3123" />
          <polygon
             id="polygon5588"
             points="62.41,41.24 62.41,58.78 62.41,58.78 50,60.37 50,39.68 "
             style="fill:#e05243" />
        </g>
      </g>
      <g
         transform="translate(245.17181,294.11065)"
         id="g5676-5-7-5-9">
        <rect
           style="fill:#dddddd;fill-opacity:1;stroke:#000000;stroke-width:1;stroke-miterlimit:4;stroke-opacity:1;stroke-dasharray:none"
           id="rect2985-4-1-7-7-3-0-5-1-91-9"
           width="199"
           height="49"
           x="135.23444"
           y="-669.81635"
           transform="scale(1,-1)" />
        <text
           xml:space="preserve"
           style="font-size:40px;font-style:normal;font-weight:normal;line-height:125%;letter-spacing:0px;word-spacing:0px;fill:#000000;fill-opacity:1;stroke:none;font-family:Sans"
           x="200.51569"
           y="651.57996"
           id="text6923-86-8"
           sodipodi:linespacing="125%"><tspan
             sodipodi:role="line"
             x="200.51569"
             y="651.57996"
             id="tspan6925-4-6"
             style="font-family:Verdana;-inkscape-font-specification:Verdana"><tspan
               x="200.51569"
               y="651.57996"
               style="font-size:20px;font-variant:normal;font-stretch:normal;font-family:Verdana;-inkscape-font-specification:Verdana"
               id="tspan6927-2-4">bioRad</tspan></tspan></text>
      </g>
      <path
         style="fill:none;stroke:#000000;stroke-width:1.49999988;stroke-linecap:butt;stroke-linejoin:miter;stroke-miterlimit:4;stroke-opacity:1;stroke-dasharray:none;marker-start:none;marker-end:url(#Arrow2Lend)"
         d="m 406.38115,815.17686 0.15303,97.67616"
         id="path5280-9-79-8-1"
         inkscape:connector-type="polyline"
         inkscape:connector-curvature="0"
         sodipodi:nodetypes="cc" />
      <g
         transform="translate(582.85156,914.40122)"
         style="font-size:40px;font-style:normal;font-weight:normal;line-height:125%;letter-spacing:0px;word-spacing:0px;fill:#000000;fill-opacity:1;stroke:none;font-family:Sans"
         id="flowRoot5042-6-1">
        <path
           d="m -153.3457,-42.319004 -1.83594,0 0,-1.142578 c -0.52735,0.45573 -1.07748,0.810547 -1.65039,1.064453 -0.57292,0.253906 -1.19467,0.380859 -1.86524,0.38086 -1.30208,-10e-7 -2.33724,-0.501302 -3.10546,-1.503906 -0.76172,-1.002602 -1.14258,-2.392575 -1.14258,-4.169922 0,-0.924473 0.1302,-1.74804 0.39062,-2.470703 0.26693,-0.722648 0.625,-1.337882 1.07422,-1.845704 0.44271,-0.494781 0.95703,-0.872385 1.54297,-1.132812 0.59244,-0.260406 1.20442,-0.390614 1.83594,-0.390625 0.57291,1.1e-5 1.08072,0.06186 1.52344,0.185547 0.4427,0.117198 0.90819,0.302745 1.39648,0.55664 l 0,-4.726562 1.83594,0 0,15.195312 m -1.83594,-2.685546 0,-6.259766 c -0.4948,-0.221345 -0.93751,-0.37434 -1.32813,-0.458984 -0.39063,-0.08463 -0.81706,-0.126944 -1.27929,-0.126954 -1.02865,10e-6 -1.82943,0.358082 -2.40235,1.074219 -0.57292,0.716154 -0.85937,1.731778 -0.85937,3.046875 0,1.295577 0.22135,2.281904 0.66406,2.958985 0.44271,0.670574 1.15234,1.00586 2.12891,1.005859 0.52082,10e-7 1.04817,-0.113931 1.58203,-0.341797 0.53385,-0.234373 1.03189,-0.533852 1.49414,-0.898437"
           style="font-size:20px;font-variant:normal;font-stretch:normal;font-family:Verdana;-inkscape-font-specification:Verdana"
           id="path6100" />
        <path
           d="m -140.43555,-47.768222 c -1e-5,1.777347 -0.45574,3.18034 -1.36718,4.208984 -0.91147,1.028646 -2.13217,1.542968 -3.66211,1.542969 -1.54298,-10e-7 -2.77019,-0.514323 -3.68164,-1.542969 -0.90495,-1.028644 -1.35743,-2.431637 -1.35743,-4.208984 0,-1.777337 0.45248,-3.18033 1.35743,-4.208985 0.91145,-1.035145 2.13866,-1.552723 3.68164,-1.552734 1.52994,1.1e-5 2.75064,0.517589 3.66211,1.552734 0.91144,1.028655 1.36717,2.431648 1.36718,4.208985 m -1.89453,0 c -1e-5,-1.412754 -0.2767,-2.46093 -0.83008,-3.144532 -0.55339,-0.690094 -1.32162,-1.035146 -2.30468,-1.035156 -0.9961,1e-5 -1.77084,0.345062 -2.32422,1.035156 -0.54688,0.683602 -0.82032,1.731778 -0.82031,3.144532 -10e-6,1.367191 0.27668,2.405602 0.83007,3.115234 0.55338,0.703127 1.32487,1.054689 2.31446,1.054688 0.97655,1e-6 1.74152,-0.348306 2.29492,-1.044922 0.55989,-0.703122 0.83983,-1.744788 0.83984,-3.125"
           style="font-size:20px;font-variant:normal;font-stretch:normal;font-family:Verdana;-inkscape-font-specification:Verdana"
           id="path6102" />
        <path
           d="m -123.86328,-53.227207 -2.8418,10.908203 -1.69922,0 -2.80273,-8.408203 -2.7832,8.408203 -1.68946,0 -2.87109,-10.908203 1.91406,0 2.00195,8.447266 2.72461,-8.447266 1.51368,0 2.79296,8.447266 1.89454,-8.447266 1.8457,0"
           style="font-size:20px;font-variant:normal;font-stretch:normal;font-family:Verdana;-inkscape-font-specification:Verdana"
           id="path6104" />
        <path
           d="m -112.0957,-42.319004 -1.83594,0 0,-6.210937 c -1e-5,-0.501295 -0.0293,-0.970045 -0.0879,-1.40625 -0.0586,-0.4427 -0.16603,-0.787752 -0.32227,-1.035156 -0.16277,-0.273429 -0.39714,-0.475252 -0.70312,-0.605469 -0.306,-0.136709 -0.70313,-0.205069 -1.19141,-0.205078 -0.50131,9e-6 -1.02539,0.123707 -1.57226,0.371094 -0.54688,0.247404 -1.07097,0.563159 -1.57227,0.947265 l 0,8.144531 -1.83594,0 0,-10.908203 1.83594,0 0,1.210938 c 0.57291,-0.47525 1.16536,-0.846344 1.77734,-1.113281 0.61198,-0.266916 1.24023,-0.40038 1.88477,-0.400391 1.17838,1.1e-5 2.07681,0.354828 2.69531,1.064453 0.61848,0.709645 0.92773,1.731779 0.92774,3.066406 l 0,7.080078"
           style="font-size:20px;font-variant:normal;font-stretch:normal;font-family:Verdana;-inkscape-font-specification:Verdana"
           id="path6106" />
        <path
           d="m -106.70508,-42.319004 -1.83594,0 0,-15.195312 1.83594,0 0,15.195312"
           style="font-size:20px;font-variant:normal;font-stretch:normal;font-family:Verdana;-inkscape-font-specification:Verdana"
           id="path6108" />
        <path
           d="m -93.833984,-47.768222 c -1.1e-5,1.777347 -0.45574,3.18034 -1.367188,4.208984 -0.911467,1.028646 -2.132169,1.542968 -3.662109,1.542969 -1.542969,-10e-7 -2.770189,-0.514323 -3.681639,-1.542969 -0.90495,-1.028644 -1.35742,-2.431637 -1.35742,-4.208984 0,-1.777337 0.45247,-3.18033 1.35742,-4.208985 0.91145,-1.035145 2.13867,-1.552723 3.681639,-1.552734 1.52994,1.1e-5 2.750642,0.517589 3.662109,1.552734 0.911448,1.028655 1.367177,2.431648 1.367188,4.208985 m -1.894532,0 c -9e-6,-1.412754 -0.276701,-2.46093 -0.830078,-3.144532 -0.553393,-0.690094 -1.321621,-1.035146 -2.304687,-1.035156 -0.996099,1e-5 -1.770839,0.345062 -2.324219,1.035156 -0.54688,0.683602 -0.82032,1.731778 -0.82031,3.144532 -10e-6,1.367191 0.27669,2.405602 0.83008,3.115234 0.55338,0.703127 1.32486,1.054689 2.314449,1.054688 0.976555,1e-6 1.741528,-0.348306 2.294922,-1.044922 0.559887,-0.703122 0.839834,-1.744788 0.839843,-3.125"
           style="font-size:20px;font-variant:normal;font-stretch:normal;font-family:Verdana;-inkscape-font-specification:Verdana"
           id="path6110" />
        <path
           d="m -82.505859,-42.319004 -1.826172,0 0,-1.162109 c -0.162769,0.110678 -0.384123,0.266928 -0.664063,0.46875 -0.273445,0.195313 -0.540372,0.351563 -0.800781,0.46875 -0.305996,0.14974 -0.657558,0.273437 -1.054687,0.371094 -0.397141,0.104166 -0.862636,0.156249 -1.396485,0.15625 -0.983076,-10e-7 -1.816409,-0.325521 -2.5,-0.976563 -0.683595,-0.65104 -1.025392,-1.481117 -1.02539,-2.490234 -2e-6,-0.826819 0.17578,-1.494136 0.527343,-2.001953 0.358071,-0.514317 0.865883,-0.917963 1.523438,-1.210938 0.664059,-0.292962 1.461584,-0.491529 2.392578,-0.595703 0.930983,-0.104159 1.930331,-0.182284 2.998047,-0.234375 l 0,-0.283203 c -9e-6,-0.416659 -0.07488,-0.76171 -0.22461,-1.035156 -0.143237,-0.273429 -0.35157,-0.488272 -0.625,-0.644531 -0.260424,-0.149731 -0.572923,-0.250642 -0.9375,-0.302735 -0.364589,-0.05207 -0.745448,-0.07811 -1.142578,-0.07813 -0.481776,1e-5 -1.018884,0.06511 -1.611328,0.195313 -0.592451,0.123707 -1.20443,0.305998 -1.835937,0.546875 l -0.09766,0 0,-1.865235 c 0.358071,-0.09764 0.875649,-0.205067 1.552735,-0.322265 0.677079,-0.117177 1.344396,-0.17577 2.001953,-0.175782 0.768223,1.2e-5 1.43554,0.06512 2.001953,0.195313 0.572909,0.123709 1.0677,0.338552 1.484375,0.644531 0.410147,0.299489 0.722647,0.686859 0.9375,1.16211 0.214834,0.475269 0.322255,1.064461 0.322266,1.767578 l 0,7.402343 m -1.826172,-2.685546 0,-3.03711 c -0.559904,0.03256 -1.220711,0.08139 -1.982422,0.146485 -0.755214,0.06511 -1.354172,0.15951 -1.796875,0.283203 -0.527348,0.149744 -0.95378,0.384119 -1.279297,0.703125 -0.325524,0.312504 -0.488284,0.745446 -0.488281,1.298828 -3e-6,0.625002 0.188799,1.097007 0.566406,1.416015 0.3776,0.312502 0.953772,0.468752 1.728516,0.46875 0.644525,2e-6 1.233717,-0.123696 1.767578,-0.371093 0.533846,-0.253905 1.028638,-0.556639 1.484375,-0.908203"
           style="font-size:20px;font-variant:normal;font-stretch:normal;font-family:Verdana;-inkscape-font-specification:Verdana"
           id="path6112" />
        <path
           d="m -70.103516,-42.319004 -1.835937,0 0,-1.142578 c -0.527352,0.45573 -1.077482,0.810547 -1.650391,1.064453 -0.572923,0.253906 -1.194667,0.380859 -1.865234,0.38086 -1.302087,-10e-7 -2.337243,-0.501302 -3.105469,-1.503906 -0.76172,-1.002602 -1.142579,-2.392575 -1.142578,-4.169922 -10e-7,-0.924473 0.130207,-1.74804 0.390625,-2.470703 0.266925,-0.722648 0.624998,-1.337882 1.074219,-1.845704 0.442705,-0.494781 0.957028,-0.872385 1.542969,-1.132812 0.592443,-0.260406 1.204421,-0.390614 1.835937,-0.390625 0.57291,1.1e-5 1.080722,0.06186 1.523438,0.185547 0.4427,0.117198 0.908194,0.302745 1.396484,0.55664 l 0,-4.726562 1.835937,0 0,15.195312 m -1.835937,-2.685546 0,-6.259766 c -0.4948,-0.221345 -0.937508,-0.37434 -1.328125,-0.458984 -0.390632,-0.08463 -0.817064,-0.126944 -1.279297,-0.126954 -1.028651,10e-6 -1.829431,0.358082 -2.402344,1.074219 -0.57292,0.716154 -0.859378,1.731778 -0.859375,3.046875 -3e-6,1.295577 0.221351,2.281904 0.664063,2.958985 0.442704,0.670574 1.152339,1.00586 2.128906,1.005859 0.520827,10e-7 1.04817,-0.113931 1.582031,-0.341797 0.533847,-0.234373 1.031893,-0.533852 1.494141,-0.898437"
           style="font-size:20px;font-variant:normal;font-stretch:normal;font-family:Verdana;-inkscape-font-specification:Verdana"
           id="path6114" />
      </g>
      <g
         id="g5836"
         transform="translate(-6,-0.50018979)">
        <path
           style="fill:url(#linearGradient5872);fill-rule:evenodd"
           inkscape:connector-curvature="0"
           id="path7216"
           d="m 555.76373,951.93224 c -10.82139,0 -19.59391,-6.33197 -19.59391,-14.14283 0,-7.81093 8.77252,-14.1429 19.59391,-14.1429 10.82143,0 19.5939,6.33197 19.5939,14.1429 0,7.81086 -8.77247,14.14283 -19.5939,14.14283 z m 2.99918,-22.75635 c -8.22521,0 -14.89307,4.32881 -14.89307,9.66866 0,5.33985 6.66786,9.66865 14.89307,9.66865 8.22517,0 14.29523,-2.95949 14.29523,-9.66865 0,-6.70705 -6.07006,-9.66866 -14.29523,-9.66866 z" />
        <path
           style="fill:url(#linearGradient5874);fill-rule:evenodd"
           inkscape:connector-curvature="0"
           id="path7218"
           d="m 566.0103,945.55178 c 0,0 1.18592,0.38568 1.8749,0.76141 0.23907,0.13038 0.65269,0.39055 0.95104,0.73213 0.29227,0.33455 0.43476,0.67356 0.43476,0.67356 l 4.67367,8.49268 -7.55395,0.004 -3.53242,-7.1492 c 0,0 -0.72334,-1.33944 -1.16842,-1.72782 -0.37129,-0.32395 -0.52959,-0.43928 -0.89669,-0.43928 -0.25553,0 -1.7948,0 -1.7948,0 l 10e-4,9.31115 -6.68442,0.003 0,-23.78467 13.4232,0 c 0,0 6.1138,0.11884 6.1138,6.38779 0,6.26895 -5.84208,6.73558 -5.84208,6.73558 z m -2.90745,-7.96415 -4.04669,-0.003 -0.002,4.04427 4.0487,-0.001 c 0,0 1.8749,-0.006 1.8749,-2.05728 0,-2.09225 -1.8749,-1.98278 -1.8749,-1.98278 z" />
      </g>
      <g
         id="g6000"
         transform="translate(0,25)">
        <g
           id="g5676-5-7-6"
           transform="translate(-54.828186,-55.889345)">
          <rect
             transform="scale(1,-1)"
             y="-669.81635"
             x="135.23444"
             height="49"
             width="199"
             id="rect2985-4-1-7-7-3-0-5-1-4"
             style="fill:#dddddd;fill-opacity:1;stroke:#000000;stroke-width:1;stroke-miterlimit:4;stroke-opacity:1;stroke-dasharray:none" />
          <text
             sodipodi:linespacing="125%"
             id="text6923-5"
             y="651.57996"
             x="214.72955"
             style="font-size:40px;font-style:normal;font-weight:normal;line-height:125%;letter-spacing:0px;word-spacing:0px;fill:#000000;fill-opacity:1;stroke:none;font-family:Sans"
             xml:space="preserve"><tspan
               style="font-family:Verdana;-inkscape-font-specification:Verdana"
               id="tspan6925-6"
               y="651.57996"
               x="214.72955"
               sodipodi:role="line"><tspan
                 id="tspan6927-1"
                 style="font-size:20px;font-variant:normal;font-stretch:normal;font-family:Verdana;-inkscape-font-specification:Verdana"
                 y="651.57996"
                 x="214.72955">EC2</tspan></tspan></text>
        </g>
        <g
           id="g5"
           transform="matrix(0.49717933,0,0,0.49717933,225.82436,564.56803)">
          <polygon
             id="polygon7"
             points="19.33,24.17 19.33,24.17 15.91,25.88 15.91,74.12 19.33,75.83 33.17,51.25 "
             style="fill:#9d5025" />
          <polygon
             id="polygon9"
             points="27.3,73.96 19.33,75.83 19.33,24.17 27.3,25.99 27.3,73.96 "
             style="fill:#f58536" />
          <polygon
             id="polygon11"
             points="23.1,22.28 23.1,22.28 27.3,20.19 47.25,52.17 27.3,79.81 23.1,77.72 "
             style="fill:#9d5025" />
          <polygon
             id="polygon13"
             points="37.24,77 27.3,79.81 27.3,20.19 37.24,23.01 37.24,77 "
             style="fill:#f58536" />
          <polygon
             id="polygon15"
             points="31.98,17.84 31.98,17.84 37.24,15.21 66.67,55.67 37.24,84.79 31.98,82.16 "
             style="fill:#9d5025" />
          <polygon
             id="polygon17"
             points="49.99,80.13 37.24,84.79 37.24,15.21 49.99,19.88 49.99,80.13 "
             style="fill:#f58536" />
          <polygon
             id="polygon19"
             points="43.19,12.24 43.19,12.24 49.99,8.84 81.83,52.33 49.99,91.16 43.19,87.76 "
             style="fill:#9d5025" />
          <polygon
             id="polygon21"
             points="84.09,74.11 49.99,91.16 49.99,8.84 84.09,25.89 84.09,74.11 "
             style="fill:#f58536" />
        </g>
      </g>
    </g>
  </g>
</svg>
